<?plantuml 1.2026.2beta3?><svg xmlns="http://www.w3.org/2000/svg" xmlns:xlink="http://www.w3.org/1999/xlink" contentStyleType="text/css" data-diagram-type="DESCRIPTION" height="732px" preserveAspectRatio="none" style="width:719px;height:732px;background:#FFFFFF;" version="1.1" viewBox="0 0 719 732" width="719px" zoomAndPan="magnify"><title>C4 Context &#8212; mistral-vibe</title><defs/><g><g class="title" data-source-line="2"><text fill="#000000" font-family="Verdana" font-size="22" font-weight="bold" lengthAdjust="spacing" textLength="322.4912" x="193.9339" y="35.4209">C4 Context &#8212; mistral-vibe</text></g><!--cluster vibe--><g class="cluster" data-qualified-name="vibe" data-source-line="5" id="ent0003"><rect fill="#FFFFFF" height="380.89" rx="2.5" ry="2.5" style="stroke:#000000;stroke-width:1;" width="297" x="52.55" y="196.8994"/><text fill="#000000" font-family="Verdana" font-size="14" font-weight="bold" lengthAdjust="spacing" textLength="148.6748" x="126.7126" y="211.8945">mistral-vibe v2.3.0</text></g><!--cluster llm--><g class="cluster" data-qualified-name="llm" data-source-line="11" id="ent0007"><path d="M397.9464,482.2212 C404.3354,471.825 412.7994,470.4334 420.4919,480.8062 C425.4251,472.5883 432.9366,473.1183 438.0918,480.5568 C442.6912,469.228 451.1946,468.1115 458.3,478.1913 C465.7059,467.7326 474.0107,467.7306 481.7983,477.7534 C483.9221,467.4045 492.4887,466.4679 499.148,473.1268 C507.132,463.344 514.4532,465.418 520.6637,475.0883 C524.1624,464.1015 532.7,462.8654 540.5138,470.4849 C549.672,461.1285 556.6681,463.121 561.2624,474.9539 C567.007,466.4555 576.0469,468.8836 579.9423,477.0293 C585.1916,465.3239 596.352,465.8151 603.5088,474.8634 C609.0454,467.3166 617.2743,468.325 621.2901,476.5753 C629.828,468.2737 637.3956,467.4381 642.4581,480.0867 C649.4555,471.7695 656.6876,472.1391 661.5981,482.2537 C671.5848,469.5121 683.8221,473.2217 688.55,487.4994 C689.6136,486.2596 690.8297,486.7631 691.233,488.169 C702.4693,494.2995 702.1726,504.2936 691.0928,510.2826 C699.6094,516.1867 701.0724,522.8008 692.7111,530.0843 C703.1726,538.1763 703.4374,546.4993 690.9155,552.7723 C700.3492,559.4452 700.2086,567.6718 690.7079,574.1609 C698.7631,579.0377 700.5101,586.5512 692.1519,592.706 C702.4902,599.5649 705.9218,606.2772 694.3621,615.2801 C702.8983,622.4449 702.5603,631.1796 691.415,635.4716 C702.0636,641.6776 703.4771,650.1716 692.3813,657.3384 C701.8402,663.1032 703.2809,672.4995 692.633,678.5034 C701.0528,692.3404 697.1827,700.0949 681.55,703.0894 C682.2412,703.4188 682.3694,704.1602 681.6857,704.6121 C678.0908,712.8237 670.0315,714.539 663.8795,707.6218 C657.6157,716.7933 649.6927,718.8301 642.3554,708.8269 C638.4981,717.4503 629.9467,718.4601 624.0792,711.1297 C617.5649,719.5135 608.1248,720.7969 602.6018,710.0186 C597.9301,718.4699 589.6607,719.0001 583.4972,711.8449 C577.4883,723.218 568.126,724.0392 561.3719,712.5666 C556.7113,722.2555 546.7485,725.13 540.3709,714.3263 C535.1402,724.6978 526.626,723.851 520.6977,715.0418 C512.4228,723.2511 506.5821,721.341 501.735,711.4506 C495.3188,720.8098 486.859,721.7172 481.3033,710.5922 C474.0483,719.0496 464.3057,719.8763 458.8055,708.5924 C451.9217,715.8266 444.5001,717.8183 439.3107,706.7843 C432.3228,714.7299 424.6007,716.4883 418.7524,705.544 C405.3404,718.124 392.985,714.3253 389.55,696.0894 C390.6227,695.9581 391.0388,696.7169 390.6798,697.6333 C381.8168,692.49 383.4905,683.4232 391.5946,679.1181 C381.5811,674.2513 379.0698,666.2206 387.7763,657.9734 C375.1894,651.6794 376.3223,640.0263 388.5395,634.5401 C378.1453,627.5047 378.6776,621.1753 388.2472,613.8577 C379.4693,608.582 379.157,602.8661 385.6381,595.4299 C374.2003,587.2569 373.7219,577.5592 387.3933,571.2054 C377.3511,564.4105 379.4721,558.0243 388.2271,552.0476 C378.4204,546.297 376.9626,536.5863 388.0742,530.686 C379.3023,524.7761 379.0142,516.8639 388.9564,511.8296 C376.1909,500.2003 381.3766,485.357 396.55,480.4994 C397.8955,480.2342 398.4496,480.987 397.9464,482.2212" fill="#FFFFFF" style="stroke:#000000;stroke-width:1;"/><text fill="#000000" font-family="Verdana" font-size="14" font-weight="bold" lengthAdjust="spacing" textLength="112.1094" x="482.9953" y="498.4945">LLM Providers</text></g><!--entity cli--><g class="entity" data-qualified-name="vibe.cli" data-source-line="6" id="ent0004"><rect fill="#FFFFFF" height="46.2969" rx="2.5" ry="2.5" style="stroke:#000000;stroke-width:1;" width="98.249" x="79.43" y="231.8994"/><rect fill="#FFFFFF" height="10" style="stroke:#000000;stroke-width:1;" width="15" x="157.679" y="236.8994"/><rect fill="#FFFFFF" height="2" style="stroke:#000000;stroke-width:1;" width="4" x="155.679" y="238.8994"/><rect fill="#FFFFFF" height="2" style="stroke:#000000;stroke-width:1;" width="4" x="155.679" y="242.8994"/><text fill="#000000" font-family="Verdana" font-size="14" lengthAdjust="spacing" textLength="58.249" x="94.43" y="264.8945">CLI / TUI</text></g><!--entity agent--><g class="entity" data-qualified-name="vibe.agent" data-source-line="7" id="ent0005"><rect fill="#FFFFFF" height="46.2969" rx="2.5" ry="2.5" style="stroke:#000000;stroke-width:1;" width="119.707" x="68.7" y="355.1994"/><rect fill="#FFFFFF" height="10" style="stroke:#000000;stroke-width:1;" width="15" x="168.407" y="360.1994"/><rect fill="#FFFFFF" height="2" style="stroke:#000000;stroke-width:1;" width="4" x="166.407" y="362.1994"/><rect fill="#FFFFFF" height="2" style="stroke:#000000;stroke-width:1;" width="4" x="166.407" y="366.1994"/><text fill="#000000" font-family="Verdana" font-size="14" lengthAdjust="spacing" textLength="79.707" x="83.7" y="388.1945">Agent Loop</text></g><!--entity tools--><g class="entity" data-qualified-name="vibe.tools" data-source-line="8" id="ent0006"><rect fill="#FFFFFF" height="46.2969" rx="2.5" ry="2.5" style="stroke:#000000;stroke-width:1;" width="126.2285" x="68.44" y="515.4994"/><rect fill="#FFFFFF" height="10" style="stroke:#000000;stroke-width:1;" width="15" x="174.6685" y="520.4994"/><rect fill="#FFFFFF" height="2" style="stroke:#000000;stroke-width:1;" width="4" x="172.6685" y="522.4994"/><rect fill="#FFFFFF" height="2" style="stroke:#000000;stroke-width:1;" width="4" x="172.6685" y="526.4994"/><text fill="#000000" font-family="Verdana" font-size="14" lengthAdjust="spacing" textLength="86.2285" x="83.44" y="548.4945">Tool System</text></g><!--entity mistral--><g class="entity" data-qualified-name="llm.mistral" data-source-line="12" id="ent0008"><rect fill="#FFFFFF" height="46.2969" rx="2.5" ry="2.5" style="stroke:#000000;stroke-width:1;" width="105.1328" x="405.98" y="515.4994"/><rect fill="#FFFFFF" height="10" style="stroke:#000000;stroke-width:1;" width="15" x="491.1128" y="520.4994"/><rect fill="#FFFFFF" height="2" style="stroke:#000000;stroke-width:1;" width="4" x="489.1128" y="522.4994"/><rect fill="#FFFFFF" height="2" style="stroke:#000000;stroke-width:1;" width="4" x="489.1128" y="526.4994"/><text fill="#000000" font-family="Verdana" font-size="14" lengthAdjust="spacing" textLength="65.1328" x="420.98" y="548.4945">Mistral AI</text></g><!--entity anthropic--><g class="entity" data-qualified-name="llm.anthropic" data-source-line="13" id="ent0009"><rect fill="#FFFFFF" height="46.2969" rx="2.5" ry="2.5" style="stroke:#000000;stroke-width:1;" width="107.6074" x="545.75" y="515.4994"/><rect fill="#FFFFFF" height="10" style="stroke:#000000;stroke-width:1;" width="15" x="633.3574" y="520.4994"/><rect fill="#FFFFFF" height="2" style="stroke:#000000;stroke-width:1;" width="4" x="631.3574" y="522.4994"/><rect fill="#FFFFFF" height="2" style="stroke:#000000;stroke-width:1;" width="4" x="631.3574" y="526.4994"/><text fill="#000000" font-family="Verdana" font-size="14" lengthAdjust="spacing" textLength="67.6074" x="560.75" y="548.4945">Anthropic</text></g><!--entity vertex--><g class="entity" data-qualified-name="llm.vertex" data-source-line="14" id="ent0010"><rect fill="#FFFFFF" height="46.2969" rx="2.5" ry="2.5" style="stroke:#000000;stroke-width:1;" width="104.4902" x="406.31" y="640.7894"/><rect fill="#FFFFFF" height="10" style="stroke:#000000;stroke-width:1;" width="15" x="490.8002" y="645.7894"/><rect fill="#FFFFFF" height="2" style="stroke:#000000;stroke-width:1;" width="4" x="488.8002" y="647.7894"/><rect fill="#FFFFFF" height="2" style="stroke:#000000;stroke-width:1;" width="4" x="488.8002" y="651.7894"/><text fill="#000000" font-family="Verdana" font-size="14" lengthAdjust="spacing" textLength="64.4902" x="421.31" y="673.7845">Vertex AI</text></g><!--entity dev--><g class="entity" data-qualified-name="dev" data-source-line="4" id="ent0002"><ellipse cx="128.5515" cy="65.6094" fill="#FFFFFF" rx="8" ry="8" style="stroke:#000000;stroke-width:1;"/><path d="M128.5515,73.6094 L128.5515,100.6094 M115.5515,81.6094 L141.5515,81.6094 M128.5515,100.6094 L115.5515,115.6094 M128.5515,100.6094 L141.5515,115.6094" fill="none" style="stroke:#000000;stroke-width:1;"/><text fill="#000000" font-family="Verdana" font-size="14" lengthAdjust="spacing" textLength="72.0029" x="92.55" y="130.6045">Developer</text></g><!--entity fs--><g class="entity" data-qualified-name="fs" data-source-line="17" id="ent0011"><path d="M11,651.2894 C11,641.2894 61.5508,641.2894 61.5508,641.2894 C61.5508,641.2894 112.1016,641.2894 112.1016,651.2894 L112.1016,676.5863 C112.1016,686.5863 61.5508,686.5863 61.5508,686.5863 C61.5508,686.5863 11,686.5863 11,676.5863 L11,651.2894" fill="#FFFFFF" style="stroke:#000000;stroke-width:1;"/><path d="M11,651.2894 C11,661.2894 61.5508,661.2894 61.5508,661.2894 C61.5508,661.2894 112.1016,661.2894 112.1016,651.2894" fill="none" style="stroke:#000000;stroke-width:1;"/><text fill="#000000" font-family="Verdana" font-size="14" lengthAdjust="spacing" textLength="81.1016" x="21" y="678.2845">File System</text></g><!--entity mcp--><g class="entity" data-qualified-name="mcp" data-source-line="18" id="ent0012"><rect fill="#FFFFFF" height="36.2969" rx="2.5" ry="2.5" style="stroke:#000000;stroke-width:1;" width="107.9512" x="147.58" y="645.7894"/><text fill="#000000" font-family="Verdana" font-size="14" lengthAdjust="spacing" textLength="87.9512" x="157.58" y="668.7845">MCP Servers</text></g><!--link dev to cli--><g class="link" data-entity-1="ent0002" data-entity-2="ent0004" data-link-type="dependency" data-source-line="20" id="lnk13"><path d="M128.55,134.0494 C128.55,164.4994 128.55,200.2894 128.55,225.6694" fill="none" id="dev-to-cli" style="stroke:#000000;stroke-width:1;"/><polygon fill="#000000" points="128.55,231.6694,132.55,222.6694,128.55,226.6694,124.55,222.6694,128.55,231.6694" style="stroke:#000000;stroke-width:1;"/><text fill="#000000" font-family="Verdana" font-size="13" lengthAdjust="spacing" textLength="144.3965" x="129.55" y="176.9663">commands &amp; prompts</text></g><!--link cli to agent--><g class="link" data-entity-1="ent0004" data-entity-2="ent0005" data-link-type="dependency" data-source-line="21" id="lnk14"><path d="M128.55,278.5794 C128.55,300.3694 128.55,327.1894 128.55,348.9394" fill="none" id="cli-to-agent" style="stroke:#000000;stroke-width:1;"/><polygon fill="#000000" points="128.55,354.9394,132.55,345.9394,128.55,349.9394,124.55,345.9394,128.55,354.9394" style="stroke:#000000;stroke-width:1;"/><text fill="#000000" font-family="Verdana" font-size="13" lengthAdjust="spacing" textLength="97.6841" x="129.55" y="321.2663">user messages</text></g><!--link agent to llm--><g class="link" data-entity-1="ent0005" data-entity-2="ent0007" data-link-type="dependency" data-source-line="22" id="lnk15"><path d="M188.61,379.6694 C314.53,381.6094 600.27,393.0794 669.55,456.4994 C672.8588,459.5269 675.6448,463.0111 677.9863,466.797 C678.5717,467.7435 679.1293,468.7088 679.6603,469.6906 C679.9258,470.1815 680.1847,470.6765 680.437,471.1753 C680.5632,471.4247 680.6878,471.675 680.8108,471.9263 C680.8722,472.0519 678.3313,466.7713 678.392,466.8974" fill="none" id="agent-to-llm" style="stroke:#000000;stroke-width:1;"/><polygon fill="#000000" points="680.994,472.3039,680.6953,462.4595,678.8257,467.7985,673.4867,465.9289,680.994,472.3039" style="stroke:#000000;stroke-width:1;"/><text fill="#000000" font-family="Verdana" font-size="13" lengthAdjust="spacing" textLength="53.8091" x="657.55" y="444.5663">API calls</text></g><!--link agent to tools--><g class="link" data-entity-1="ent0005" data-entity-2="ent0006" data-link-type="dependency" data-source-line="23" id="lnk16"><path d="M128.97,401.6894 C129.54,431.7794 130.4366,479.0004 131.0066,509.1604" fill="none" id="agent-to-tools" style="stroke:#000000;stroke-width:1;"/><polygon fill="#000000" points="131.12,515.1594,134.9492,506.0854,131.0255,510.1603,126.9507,506.2366,131.12,515.1594" style="stroke:#000000;stroke-width:1;"/><text fill="#000000" font-family="Verdana" font-size="13" lengthAdjust="spacing" textLength="103.0352" x="131.55" y="444.5663">tool invocations</text></g><!--link tools to fs--><g class="link" data-entity-1="ent0006" data-entity-2="ent0011" data-link-type="dependency" data-source-line="24" id="lnk17"><path d="M88.3,562.2594 C76.84,570.5394 65.91,581.0594 59.55,593.7894 C52.31,608.2994 52.2102,620.8319 54.7302,635.0119" fill="none" id="tools-to-fs" style="stroke:#000000;stroke-width:1;"/><polygon fill="#000000" points="55.78,640.9194,58.1435,631.3583,54.9051,635.9965,50.2669,632.7581,55.78,640.9194" style="stroke:#000000;stroke-width:1;"/><text fill="#000000" font-family="Verdana" font-size="13" lengthAdjust="spacing" textLength="97.3286" x="60.55" y="606.8563">read/write files</text></g><!--link tools to mcp--><g class="link" data-entity-1="ent0006" data-entity-2="ent0012" data-link-type="dependency" data-source-line="25" id="lnk18"><path d="M144.55,562.2794 C150.11,571.9794 156.66,583.4294 162.55,593.7894 C172.49,611.2894 180.8395,626.0893 188.6995,640.0693" fill="none" id="tools-to-mcp" style="stroke:#000000;stroke-width:1;"/><polygon fill="#000000" points="191.64,645.2994,190.7159,635.494,189.1896,640.941,183.7425,639.4146,191.64,645.2994" style="stroke:#000000;stroke-width:1;"/><text fill="#000000" font-family="Verdana" font-size="13" lengthAdjust="spacing" textLength="85.5791" x="172.55" y="606.8563">MCP protocol</text></g><!--link agent to agent--><g class="link" data-entity-1="ent0005" data-entity-2="ent0005" data-link-type="dependency" data-source-line="26" id="lnk19"><path d="M188.76,366.7894 C208.09,366.9094 223.4,370.7594 223.4,378.3494 C223.4,385.9294 214.0899,389.7552 194.7599,389.8652" fill="none" id="agent-to-agent" style="stroke:#000000;stroke-width:1;"/><polygon fill="#000000" points="188.76,389.8994,197.7826,393.8481,193.7599,389.8709,197.7371,385.8482,188.76,389.8994" style="stroke:#000000;stroke-width:1;"/><text fill="#000000" font-family="Verdana" font-size="13" lengthAdjust="spacing" textLength="115.9209" x="229.4" y="382.9163">conversation loop</text></g><?plantuml-src NP71IWCn48RlUOfn3zxQYdhgGIWLeR25GgltD3jj0qac9DEeYE13-8G-YKdMXQsdCFd_p7ppvufFQ16yaTe9rcmGckKzBCanlZ7yV7s3rP63D9EazzW88HLJWEOH4nho61gG4JfC8g1YwOwbm_W9fDlftVIcschz8G0KMKyE7UTfxGfci7jULOSo-b9U7ClH4lcgor9UEdP41hRlaT5M2-SwYayXbA5p1qtRhc4JAEaEGwmEO-n_YdLF38iUus-1VoYEJu6yLZt9K5sQNZ3av8O-gLO5ffCizpBcS9vqZcZ4UuZZwDRB3Mmnf87LAfyVOuB9vA6a0_CopKhNHRW67_9aZg88nL3ZoPPpn00MOymNKVItHI-Rps6nMO6IneoLcbhMoWdQ9LAIDRaeUg5O3aKFABlPQz2CSCYBZFMCcWrbWOp5fCYC-WzaYbpPhJO7ax_r5m00?></g></svg>