<?plantuml 1.2026.2beta3?><svg xmlns="http://www.w3.org/2000/svg" xmlns:xlink="http://www.w3.org/1999/xlink" contentStyleType="text/css" data-diagram-type="MINDMAP" height="1990px" preserveAspectRatio="none" style="width:787px;height:1990px;background:#FFFFFF;" version="1.1" viewBox="0 0 787 1990" width="787px" zoomAndPan="magnify"><defs/><g><rect fill="#F1F1F1" height="36.2969" rx="12.5" ry="12.5" style="stroke:#181818;stroke-width:1.5;" width="131.3232" x="10" y="976.3438"/><text fill="#000000" font-family="sans-serif" font-size="14" lengthAdjust="spacing" textLength="111.3232" x="20" y="999.3389">Design Patterns</text><rect fill="#F1F1F1" height="36.2969" rx="12.5" ry="12.5" style="stroke:#181818;stroke-width:1.5;" width="137.209" x="191.3232" y="104.4453"/><text fill="#000000" font-family="sans-serif" font-size="14" lengthAdjust="spacing" textLength="117.209" x="201.3232" y="127.4404">Protocol Adapter</text><rect fill="#F1F1F1" height="36.2969" rx="12.5" ry="12.5" style="stroke:#181818;stroke-width:1.5;" width="282.9922" x="378.5322" y="20"/><text fill="#000000" font-family="sans-serif" font-size="14" lengthAdjust="spacing" textLength="262.9922" x="388.5322" y="42.9951">Protocol / Adapter &#8212; CompletionView</text><path d="M328.5322,122.5938 L338.5322,122.5938 C353.5322,122.5938 353.5322,38.1484 368.5322,38.1484 L378.5322,38.1484" fill="none" style="stroke:#181818;stroke-width:1;"/><rect fill="#F1F1F1" height="36.2969" rx="12.5" ry="12.5" style="stroke:#181818;stroke-width:1.5;" width="338.5889" x="378.5322" y="76.2969"/><text fill="#000000" font-family="sans-serif" font-size="14" lengthAdjust="spacing" textLength="318.5889" x="388.5322" y="99.292">Protocol / Adapter &#8212; UpdateCacheRepository</text><path d="M328.5322,122.5938 L338.5322,122.5938 C353.5322,122.5938 353.5322,94.4453 368.5322,94.4453 L378.5322,94.4453" fill="none" style="stroke:#181818;stroke-width:1;"/><rect fill="#F1F1F1" height="36.2969" rx="12.5" ry="12.5" style="stroke:#181818;stroke-width:1.5;" width="281.8232" x="378.5322" y="132.5938"/><text fill="#000000" font-family="sans-serif" font-size="14" lengthAdjust="spacing" textLength="261.8232" x="388.5322" y="155.5889">Protocol / Adapter &#8212; UpdateGateway</text><path d="M328.5322,122.5938 L338.5322,122.5938 C353.5322,122.5938 353.5322,150.7422 368.5322,150.7422 L378.5322,150.7422" fill="none" style="stroke:#181818;stroke-width:1;"/><rect fill="#F1F1F1" height="36.2969" rx="12.5" ry="12.5" style="stroke:#181818;stroke-width:1.5;" width="247.2129" x="378.5322" y="188.8906"/><text fill="#000000" font-family="sans-serif" font-size="14" lengthAdjust="spacing" textLength="227.2129" x="388.5322" y="211.8857">Protocol / Adapter &#8212; APIAdapter</text><path d="M328.5322,122.5938 L338.5322,122.5938 C353.5322,122.5938 353.5322,207.0391 368.5322,207.0391 L378.5322,207.0391" fill="none" style="stroke:#181818;stroke-width:1;"/><path d="M141.3232,994.4922 L151.3232,994.4922 C166.3232,994.4922 166.3232,122.5938 181.3232,122.5938 L191.3232,122.5938" fill="none" style="stroke:#181818;stroke-width:1;"/><rect fill="#F1F1F1" height="36.2969" rx="12.5" ry="12.5" style="stroke:#181818;stroke-width:1.5;" width="143.2178" x="191.3232" y="301.4844"/><text fill="#000000" font-family="sans-serif" font-size="14" lengthAdjust="spacing" textLength="123.2178" x="201.3232" y="324.4795">Template Method</text><rect fill="#F1F1F1" height="36.2969" rx="12.5" ry="12.5" style="stroke:#181818;stroke-width:1.5;" width="284.6875" x="384.541" y="245.1875"/><text fill="#000000" font-family="sans-serif" font-size="14" lengthAdjust="spacing" textLength="264.6875" x="394.541" y="268.1826">Template Method &#8212; OutputFormatter</text><path d="M334.541,319.6328 L344.541,319.6328 C359.541,319.6328 359.541,263.3359 374.541,263.3359 L384.541,263.3359" fill="none" style="stroke:#181818;stroke-width:1;"/><rect fill="#F1F1F1" height="36.2969" rx="12.5" ry="12.5" style="stroke:#181818;stroke-width:1.5;" width="229.7813" x="384.541" y="301.4844"/><text fill="#000000" font-family="sans-serif" font-size="14" lengthAdjust="spacing" textLength="209.7813" x="394.541" y="324.4795">Template Method &#8212; BaseTool</text><path d="M334.541,319.6328 L344.541,319.6328 C359.541,319.6328 359.541,319.6328 374.541,319.6328 L384.541,319.6328" fill="none" style="stroke:#181818;stroke-width:1;"/><rect fill="#F1F1F1" height="36.2969" rx="12.5" ry="12.5" style="stroke:#181818;stroke-width:1.5;" width="243.4941" x="384.541" y="357.7813"/><text fill="#000000" font-family="sans-serif" font-size="14" lengthAdjust="spacing" textLength="223.4941" x="394.541" y="380.7764">Template Method &#8212; ToolUIData</text><path d="M334.541,319.6328 L344.541,319.6328 C359.541,319.6328 359.541,375.9297 374.541,375.9297 L384.541,375.9297" fill="none" style="stroke:#181818;stroke-width:1;"/><path d="M141.3232,994.4922 L151.3232,994.4922 C166.3232,994.4922 166.3232,319.6328 181.3232,319.6328 L191.3232,319.6328" fill="none" style="stroke:#181818;stroke-width:1;"/><rect fill="#F1F1F1" height="36.2969" rx="12.5" ry="12.5" style="stroke:#181818;stroke-width:1.5;" width="72.4248" x="191.3232" y="563.9688"/><text fill="#000000" font-family="sans-serif" font-size="14" lengthAdjust="spacing" textLength="52.4248" x="201.3232" y="586.9639">Factory</text><rect fill="#F1F1F1" height="36.2969" rx="12.5" ry="12.5" style="stroke:#181818;stroke-width:1.5;" width="245.5723" x="313.748" y="414.0781"/><text fill="#000000" font-family="sans-serif" font-size="14" lengthAdjust="spacing" textLength="225.5723" x="323.748" y="437.0732">Factory &#8212; get_current_version()</text><path d="M263.748,582.1172 L273.748,582.1172 C288.748,582.1172 288.748,432.2266 303.748,432.2266 L313.748,432.2266" fill="none" style="stroke:#181818;stroke-width:1;"/><rect fill="#F1F1F1" height="36.2969" rx="12.5" ry="12.5" style="stroke:#181818;stroke-width:1.5;" width="300.4717" x="313.748" y="470.375"/><text fill="#000000" font-family="sans-serif" font-size="14" lengthAdjust="spacing" textLength="280.4717" x="323.748" y="493.3701">Factory &#8212; get_version_from_pyproject()</text><path d="M263.748,582.1172 L273.748,582.1172 C288.748,582.1172 288.748,488.5234 303.748,488.5234 L313.748,488.5234" fill="none" style="stroke:#181818;stroke-width:1;"/><rect fill="#F1F1F1" height="36.2969" rx="12.5" ry="12.5" style="stroke:#181818;stroke-width:1.5;" width="233.8691" x="313.748" y="526.6719"/><text fill="#000000" font-family="sans-serif" font-size="14" lengthAdjust="spacing" textLength="213.8691" x="323.748" y="549.667">Factory &#8212; get_latest_version()</text><path d="M263.748,582.1172 L273.748,582.1172 C288.748,582.1172 288.748,544.8203 303.748,544.8203 L313.748,544.8203" fill="none" style="stroke:#181818;stroke-width:1;"/><rect fill="#F1F1F1" height="36.2969" rx="12.5" ry="12.5" style="stroke:#181818;stroke-width:1.5;" width="265.0205" x="313.748" y="582.9688"/><text fill="#000000" font-family="sans-serif" font-size="14" lengthAdjust="spacing" textLength="245.0205" x="323.748" y="605.9639">Factory &#8212; create_release_branch()</text><path d="M263.748,582.1172 L273.748,582.1172 C288.748,582.1172 288.748,601.1172 303.748,601.1172 L313.748,601.1172" fill="none" style="stroke:#181818;stroke-width:1;"/><rect fill="#F1F1F1" height="36.2969" rx="12.5" ry="12.5" style="stroke:#181818;stroke-width:1.5;" width="269.5117" x="313.748" y="639.2656"/><text fill="#000000" font-family="sans-serif" font-size="14" lengthAdjust="spacing" textLength="249.5117" x="323.748" y="662.2607">Factory &#8212; get_commits_summary()</text><path d="M263.748,582.1172 L273.748,582.1172 C288.748,582.1172 288.748,657.4141 303.748,657.4141 L313.748,657.4141" fill="none" style="stroke:#181818;stroke-width:1;"/><rect fill="#F1F1F1" height="36.2969" rx="12.5" ry="12.5" style="stroke:#181818;stroke-width:1.5;" width="253.1191" x="313.748" y="695.5625"/><text fill="#000000" font-family="sans-serif" font-size="14" lengthAdjust="spacing" textLength="233.1191" x="323.748" y="718.5576">Factory &#8212; get_changelog_entry()</text><path d="M263.748,582.1172 L273.748,582.1172 C288.748,582.1172 288.748,713.7109 303.748,713.7109 L313.748,713.7109" fill="none" style="stroke:#181818;stroke-width:1;"/><text fill="#000000" font-family="sans-serif" font-size="14" lengthAdjust="spacing" textLength="70.5674" x="316.748" y="755.8545">+96 more</text><path d="M263.748,582.1172 L273.748,582.1172 C288.748,582.1172 288.748,751.0078 303.748,751.0078 L313.748,751.0078" fill="none" style="stroke:#181818;stroke-width:1;"/><path d="M141.3232,994.4922 L151.3232,994.4922 C166.3232,994.4922 166.3232,582.1172 181.3232,582.1172 L191.3232,582.1172" fill="none" style="stroke:#181818;stroke-width:1;"/><rect fill="#F1F1F1" height="36.2969" rx="12.5" ry="12.5" style="stroke:#181818;stroke-width:1.5;" width="160.1914" x="191.3232" y="826.4531"/><text fill="#000000" font-family="sans-serif" font-size="14" lengthAdjust="spacing" textLength="140.1914" x="201.3232" y="849.4482">Middleware Pipeline</text><rect fill="#F1F1F1" height="36.2969" rx="12.5" ry="12.5" style="stroke:#181818;stroke-width:1.5;" width="288.96" x="401.5146" y="770.1563"/><text fill="#000000" font-family="sans-serif" font-size="14" lengthAdjust="spacing" textLength="268.96" x="411.5146" y="793.1514">Middleware &#8212; InjectBeforeMiddleware</text><path d="M351.5146,844.6016 L361.5146,844.6016 C376.5146,844.6016 376.5146,788.3047 391.5146,788.3047 L401.5146,788.3047" fill="none" style="stroke:#181818;stroke-width:1;"/><rect fill="#F1F1F1" height="36.2969" rx="12.5" ry="12.5" style="stroke:#181818;stroke-width:1.5;" width="337.8096" x="401.5146" y="826.4531"/><text fill="#000000" font-family="sans-serif" font-size="14" lengthAdjust="spacing" textLength="317.8096" x="411.5146" y="849.4482">Middleware Pipeline &#8212; tests.test_middleware</text><path d="M351.5146,844.6016 L361.5146,844.6016 C376.5146,844.6016 376.5146,844.6016 391.5146,844.6016 L401.5146,844.6016" fill="none" style="stroke:#181818;stroke-width:1;"/><rect fill="#F1F1F1" height="36.2969" rx="12.5" ry="12.5" style="stroke:#181818;stroke-width:1.5;" width="334.501" x="401.5146" y="882.75"/><text fill="#000000" font-family="sans-serif" font-size="14" lengthAdjust="spacing" textLength="314.501" x="411.5146" y="905.7451">Middleware Pipeline &#8212; vibe.core.middleware</text><path d="M351.5146,844.6016 L361.5146,844.6016 C376.5146,844.6016 376.5146,900.8984 391.5146,900.8984 L401.5146,900.8984" fill="none" style="stroke:#181818;stroke-width:1;"/><path d="M141.3232,994.4922 L151.3232,994.4922 C166.3232,994.4922 166.3232,844.6016 181.3232,844.6016 L191.3232,844.6016" fill="none" style="stroke:#181818;stroke-width:1;"/><rect fill="#F1F1F1" height="36.2969" rx="12.5" ry="12.5" style="stroke:#181818;stroke-width:1.5;" width="161.2852" x="191.3232" y="1088.9375"/><text fill="#000000" font-family="sans-serif" font-size="14" lengthAdjust="spacing" textLength="141.2852" x="201.3232" y="1111.9326">Observer Streaming</text><rect fill="#F1F1F1" height="36.2969" rx="12.5" ry="12.5" style="stroke:#181818;stroke-width:1.5;" width="373.2197" x="402.6084" y="939.0469"/><text fill="#000000" font-family="sans-serif" font-size="14" lengthAdjust="spacing" textLength="353.2197" x="412.6084" y="962.042">Async Streaming &#8212; get_acp_agent_loop_process()</text><path d="M352.6084,1107.0859 L362.6084,1107.0859 C377.6084,1107.0859 377.6084,957.1953 392.6084,957.1953 L402.6084,957.1953" fill="none" style="stroke:#181818;stroke-width:1;"/><rect fill="#F1F1F1" height="36.2969" rx="12.5" ry="12.5" style="stroke:#181818;stroke-width:1.5;" width="255.4023" x="402.6084" y="995.3438"/><text fill="#000000" font-family="sans-serif" font-size="14" lengthAdjust="spacing" textLength="235.4023" x="412.6084" y="1018.3389">Async Streaming &#8212; FakeBackend</text><path d="M352.6084,1107.0859 L362.6084,1107.0859 C377.6084,1107.0859 377.6084,1013.4922 392.6084,1013.4922 L402.6084,1013.4922" fill="none" style="stroke:#181818;stroke-width:1;"/><rect fill="#F1F1F1" height="36.2969" rx="12.5" ry="12.5" style="stroke:#181818;stroke-width:1.5;" width="224.6133" x="402.6084" y="1051.6406"/><text fill="#000000" font-family="sans-serif" font-size="14" lengthAdjust="spacing" textLength="204.6133" x="412.6084" y="1074.6357">Async Streaming &#8212; FakeTool</text><path d="M352.6084,1107.0859 L362.6084,1107.0859 C377.6084,1107.0859 377.6084,1069.7891 392.6084,1069.7891 L402.6084,1069.7891" fill="none" style="stroke:#181818;stroke-width:1;"/><rect fill="#F1F1F1" height="36.2969" rx="12.5" ry="12.5" style="stroke:#181818;stroke-width:1.5;" width="239.0645" x="402.6084" y="1107.9375"/><text fill="#000000" font-family="sans-serif" font-size="14" lengthAdjust="spacing" textLength="219.0645" x="412.6084" y="1130.9326">Async Streaming &#8212; SimpleTool</text><path d="M352.6084,1107.0859 L362.6084,1107.0859 C377.6084,1107.0859 377.6084,1126.0859 392.6084,1126.0859 L402.6084,1126.0859" fill="none" style="stroke:#181818;stroke-width:1;"/><rect fill="#F1F1F1" height="36.2969" rx="12.5" ry="12.5" style="stroke:#181818;stroke-width:1.5;" width="294.0732" x="402.6084" y="1164.2344"/><text fill="#000000" font-family="sans-serif" font-size="14" lengthAdjust="spacing" textLength="274.0732" x="412.6084" y="1187.2295">Async Streaming &#8212; VibeAcpAgentLoop</text><path d="M352.6084,1107.0859 L362.6084,1107.0859 C377.6084,1107.0859 377.6084,1182.3828 392.6084,1182.3828 L402.6084,1182.3828" fill="none" style="stroke:#181818;stroke-width:1;"/><rect fill="#F1F1F1" height="36.2969" rx="12.5" ry="12.5" style="stroke:#181818;stroke-width:1.5;" width="196.0391" x="402.6084" y="1220.5313"/><text fill="#000000" font-family="sans-serif" font-size="14" lengthAdjust="spacing" textLength="176.0391" x="412.6084" y="1243.5264">Async Streaming &#8212; Bash</text><path d="M352.6084,1107.0859 L362.6084,1107.0859 C377.6084,1107.0859 377.6084,1238.6797 392.6084,1238.6797 L402.6084,1238.6797" fill="none" style="stroke:#181818;stroke-width:1;"/><text fill="#000000" font-family="sans-serif" font-size="14" lengthAdjust="spacing" textLength="70.5674" x="405.6084" y="1280.8232">+18 more</text><path d="M352.6084,1107.0859 L362.6084,1107.0859 C377.6084,1107.0859 377.6084,1275.9766 392.6084,1275.9766 L402.6084,1275.9766" fill="none" style="stroke:#181818;stroke-width:1;"/><path d="M141.3232,994.4922 L151.3232,994.4922 C166.3232,994.4922 166.3232,1107.0859 181.3232,1107.0859 L191.3232,1107.0859" fill="none" style="stroke:#181818;stroke-width:1;"/><rect fill="#F1F1F1" height="36.2969" rx="12.5" ry="12.5" style="stroke:#181818;stroke-width:1.5;" width="119.7773" x="191.3232" y="1435.8672"/><text fill="#000000" font-family="sans-serif" font-size="14" lengthAdjust="spacing" textLength="99.7773" x="201.3232" y="1458.8623">Autodiscovery</text><rect fill="#F1F1F1" height="36.2969" rx="12.5" ry="12.5" style="stroke:#181818;stroke-width:1.5;" width="338.7666" x="361.1006" y="1295.125"/><text fill="#000000" font-family="sans-serif" font-size="14" lengthAdjust="spacing" textLength="318.7666" x="371.1006" y="1318.1201">Auto-Discovery &#8212; TestSkillManagerDiscovery</text><path d="M311.1006,1454.0156 L321.1006,1454.0156 C336.1006,1454.0156 336.1006,1313.2734 351.1006,1313.2734 L361.1006,1313.2734" fill="none" style="stroke:#181818;stroke-width:1;"/><rect fill="#F1F1F1" height="36.2969" rx="12.5" ry="12.5" style="stroke:#181818;stroke-width:1.5;" width="356.6836" x="361.1006" y="1351.4219"/><text fill="#000000" font-family="sans-serif" font-size="14" lengthAdjust="spacing" textLength="336.6836" x="371.1006" y="1374.417">Auto-Discovery &#8212; TestSkillManagerSearchPaths</text><path d="M311.1006,1454.0156 L321.1006,1454.0156 C336.1006,1454.0156 336.1006,1369.5703 351.1006,1369.5703 L361.1006,1369.5703" fill="none" style="stroke:#181818;stroke-width:1;"/><rect fill="#F1F1F1" height="36.2969" rx="12.5" ry="12.5" style="stroke:#181818;stroke-width:1.5;" width="260.7959" x="361.1006" y="1407.7188"/><text fill="#000000" font-family="sans-serif" font-size="14" lengthAdjust="spacing" textLength="240.7959" x="371.1006" y="1430.7139">Auto-Discovery &#8212; HistoryManager</text><path d="M311.1006,1454.0156 L321.1006,1454.0156 C336.1006,1454.0156 336.1006,1425.8672 351.1006,1425.8672 L361.1006,1425.8672" fill="none" style="stroke:#181818;stroke-width:1;"/><rect fill="#F1F1F1" height="36.2969" rx="12.5" ry="12.5" style="stroke:#181818;stroke-width:1.5;" width="252.4287" x="361.1006" y="1464.0156"/><text fill="#000000" font-family="sans-serif" font-size="14" lengthAdjust="spacing" textLength="232.4287" x="371.1006" y="1487.0107">Auto-Discovery &#8212; AgentManager</text><path d="M311.1006,1454.0156 L321.1006,1454.0156 C336.1006,1454.0156 336.1006,1482.1641 351.1006,1482.1641 L361.1006,1482.1641" fill="none" style="stroke:#181818;stroke-width:1;"/><rect fill="#F1F1F1" height="36.2969" rx="12.5" ry="12.5" style="stroke:#181818;stroke-width:1.5;" width="239.6523" x="361.1006" y="1520.3125"/><text fill="#000000" font-family="sans-serif" font-size="14" lengthAdjust="spacing" textLength="219.6523" x="371.1006" y="1543.3076">Auto-Discovery &#8212; SkillManager</text><path d="M311.1006,1454.0156 L321.1006,1454.0156 C336.1006,1454.0156 336.1006,1538.4609 351.1006,1538.4609 L361.1006,1538.4609" fill="none" style="stroke:#181818;stroke-width:1;"/><rect fill="#F1F1F1" height="36.2969" rx="12.5" ry="12.5" style="stroke:#181818;stroke-width:1.5;" width="240.5615" x="361.1006" y="1576.6094"/><text fill="#000000" font-family="sans-serif" font-size="14" lengthAdjust="spacing" textLength="220.5615" x="371.1006" y="1599.6045">Auto-Discovery &#8212; ToolManager</text><path d="M311.1006,1454.0156 L321.1006,1454.0156 C336.1006,1454.0156 336.1006,1594.7578 351.1006,1594.7578 L361.1006,1594.7578" fill="none" style="stroke:#181818;stroke-width:1;"/><path d="M141.3232,994.4922 L151.3232,994.4922 C166.3232,994.4922 166.3232,1454.0156 181.3232,1454.0156 L191.3232,1454.0156" fill="none" style="stroke:#181818;stroke-width:1;"/><rect fill="#F1F1F1" height="36.2969" rx="12.5" ry="12.5" style="stroke:#181818;stroke-width:1.5;" width="126.5313" x="191.3232" y="1782.7969"/><text fill="#000000" font-family="sans-serif" font-size="14" lengthAdjust="spacing" textLength="106.5313" x="201.3232" y="1805.792">Config As Code</text><rect fill="#F1F1F1" height="36.2969" rx="12.5" ry="12.5" style="stroke:#181818;stroke-width:1.5;" width="298.0996" x="367.8545" y="1632.9063"/><text fill="#000000" font-family="sans-serif" font-size="14" lengthAdjust="spacing" textLength="278.0996" x="377.8545" y="1655.9014">Config-as-Code &#8212; ProjectContextConfig</text><path d="M317.8545,1800.9453 L327.8545,1800.9453 C342.8545,1800.9453 342.8545,1651.0547 357.8545,1651.0547 L367.8545,1651.0547" fill="none" style="stroke:#181818;stroke-width:1;"/><rect fill="#F1F1F1" height="36.2969" rx="12.5" ry="12.5" style="stroke:#181818;stroke-width:1.5;" width="303.7598" x="367.8545" y="1689.2031"/><text fill="#000000" font-family="sans-serif" font-size="14" lengthAdjust="spacing" textLength="283.7598" x="377.8545" y="1712.1982">Config-as-Code &#8212; SessionLoggingConfig</text><path d="M317.8545,1800.9453 L327.8545,1800.9453 C342.8545,1800.9453 342.8545,1707.3516 357.8545,1707.3516 L367.8545,1707.3516" fill="none" style="stroke:#181818;stroke-width:1;"/><rect fill="#F1F1F1" height="36.2969" rx="12.5" ry="12.5" style="stroke:#181818;stroke-width:1.5;" width="252.75" x="367.8545" y="1745.5"/><text fill="#000000" font-family="sans-serif" font-size="14" lengthAdjust="spacing" textLength="232.75" x="377.8545" y="1768.4951">Config-as-Code &#8212; ProviderConfig</text><path d="M317.8545,1800.9453 L327.8545,1800.9453 C342.8545,1800.9453 342.8545,1763.6484 357.8545,1763.6484 L367.8545,1763.6484" fill="none" style="stroke:#181818;stroke-width:1;"/><rect fill="#F1F1F1" height="36.2969" rx="12.5" ry="12.5" style="stroke:#181818;stroke-width:1.5;" width="236.5898" x="367.8545" y="1801.7969"/><text fill="#000000" font-family="sans-serif" font-size="14" lengthAdjust="spacing" textLength="216.5898" x="377.8545" y="1824.792">Config-as-Code &#8212; ModelConfig</text><path d="M317.8545,1800.9453 L327.8545,1800.9453 C342.8545,1800.9453 342.8545,1819.9453 357.8545,1819.9453 L367.8545,1819.9453" fill="none" style="stroke:#181818;stroke-width:1;"/><rect fill="#F1F1F1" height="36.2969" rx="12.5" ry="12.5" style="stroke:#181818;stroke-width:1.5;" width="225.5225" x="367.8545" y="1858.0938"/><text fill="#000000" font-family="sans-serif" font-size="14" lengthAdjust="spacing" textLength="205.5225" x="377.8545" y="1881.0889">Config-as-Code &#8212; VibeConfig</text><path d="M317.8545,1800.9453 L327.8545,1800.9453 C342.8545,1800.9453 342.8545,1876.2422 357.8545,1876.2422 L367.8545,1876.2422" fill="none" style="stroke:#181818;stroke-width:1;"/><rect fill="#F1F1F1" height="36.2969" rx="12.5" ry="12.5" style="stroke:#181818;stroke-width:1.5;" width="250.5762" x="367.8545" y="1914.3906"/><text fill="#000000" font-family="sans-serif" font-size="14" lengthAdjust="spacing" textLength="230.5762" x="377.8545" y="1937.3857">Config-as-Code &#8212; GitRepoConfig</text><path d="M317.8545,1800.9453 L327.8545,1800.9453 C342.8545,1800.9453 342.8545,1932.5391 357.8545,1932.5391 L367.8545,1932.5391" fill="none" style="stroke:#181818;stroke-width:1;"/><text fill="#000000" font-family="sans-serif" font-size="14" lengthAdjust="spacing" textLength="70.5674" x="370.8545" y="1974.6826">+14 more</text><path d="M317.8545,1800.9453 L327.8545,1800.9453 C342.8545,1800.9453 342.8545,1969.8359 357.8545,1969.8359 L367.8545,1969.8359" fill="none" style="stroke:#181818;stroke-width:1;"/><path d="M141.3232,994.4922 L151.3232,994.4922 C166.3232,994.4922 166.3232,1800.9453 181.3232,1800.9453 L191.3232,1800.9453" fill="none" style="stroke:#181818;stroke-width:1;"/><?plantuml-src bPNDRXen4CVlF8MF3HMaeLNKth84aI851PKaLslm3hik_f9jIBdr8Vg4VPAET_bgn6xQmqhM-FSVpvUzDo62ZrgQN8FhTDa8WomCcq6Cw4teTBjivcsqmYgMvU38IhOJu-NUp7x__CLkhNOAexJcMU9B6_daSeXu2wB4R-XiaD7wxTk2E_fUe1NCPfDZfEmHAI8IiId6qkQLy9MjKZsierl7iVMwIhsH6qB0HsjL8v0sdoOZY92E7uCu9BPRLrI1aOkrzsWYtw0FLB5t5sUftIvVUgkvspfllwE83N0A9hHv51u9uHuLKY9yuS68ii6Pi5hB67XOQmr-sqILO0fKjk2KovxYxFsNQwQjnrI4gSnpHMtpo6RIeP86ArSdzkHjOb9cGroIxBZrcjnxg2Gfsz2lSjR_fjZ81VO5dT3_Iy0U5W4zrOtD8vM8BaHHkSd2reYZxP0r2CUXIDrJrZfENH4Omgv4vqHZME4Gn0fDtieSPkiSC9VfUhKYpvHV9boMOhkdq1f16kHorwghpuTMPUjeSnc4fLBKKviilT7UL8yurNk-aafDmL0H_EX_1NC4BqfwPChG9FagGngpdQ29gj9yWpazk350AkaHeMVCB6L1PQDLNizJRUf1w2LJ9PhLLv5s8lw8DT34pcaww4RUswAW1hIpv7SZS_Jjr9GMgXr9iz1EtCcONjyZbARXKpqDDpIg-nz3vwe_-32uxWyM6E7Z7m00?></g></svg>