<?plantuml 1.2026.2beta3?><svg xmlns="http://www.w3.org/2000/svg" xmlns:xlink="http://www.w3.org/1999/xlink" contentStyleType="text/css" data-diagram-type="CLASS" height="959px" preserveAspectRatio="none" style="width:778px;height:959px;background:#FFFFFF;" version="1.1" viewBox="0 0 778 959" width="778px" zoomAndPan="magnify"><title>Class Diagram &#8212; wiki</title><defs/><g><g class="title" data-source-line="3"><text fill="#000000" font-family="Verdana" font-size="22" font-weight="bold" lengthAdjust="spacing" textLength="264.752" x="252.2055" y="35.4209">Class Diagram &#8212; wiki</text></g><!--class FunctionNode--><g class="entity" data-qualified-name="FunctionNode" data-source-line="5" id="ent0002"><rect fill="#FFFFFF" height="154.0469" rx="2.5" ry="2.5" style="stroke:#000000;stroke-width:1;" width="130.8701" x="26.68" y="66.7594"/><ellipse cx="42.3883" cy="86.8922" fill="#FFFFFF" rx="9" ry="9" style="stroke:#000000;stroke-width:1;"/><path d="M45.3571,92.5328 Q44.779,92.8297 44.1383,92.9703 Q43.4977,93.1266 42.7946,93.1266 Q40.2946,93.1266 38.9665,91.4859 Q37.654,89.8297 37.654,86.7047 Q37.654,83.5797 38.9665,81.9234 Q40.2946,80.2672 42.7946,80.2672 Q43.4977,80.2672 44.1383,80.4234 Q44.7946,80.5797 45.3571,80.8766 L45.3571,83.5953 Q44.7321,83.0172 44.1383,82.7516 Q43.5446,82.4703 42.9196,82.4703 Q41.5758,82.4703 40.8883,83.5484 Q40.2008,84.6109 40.2008,86.7047 Q40.2008,88.7984 40.8883,89.8766 Q41.5758,90.9391 42.9196,90.9391 Q43.5446,90.9391 44.1383,90.6734 Q44.7321,90.3922 45.3571,89.8141 L45.3571,92.5328 Z " fill="#000000"/><text fill="#000000" font-family="Verdana" font-size="12" font-style="italic" lengthAdjust="spacing" textLength="71.502" x="67.665" y="82.898">&#171;dataclass&#187;</text><text fill="#000000" font-family="Verdana" font-size="14" lengthAdjust="spacing" textLength="96.8516" x="54.9902" y="98.7232">FunctionNode</text><line style="stroke:#000000;stroke-width:1;" x1="27.68" x2="156.5501" y1="107.025" y2="107.025"/><text fill="#000000" font-family="Verdana" font-size="14" lengthAdjust="spacing" textLength="51.4336" x="32.68" y="124.0201">+name</text><text fill="#000000" font-family="Verdana" font-size="14" lengthAdjust="spacing" textLength="118.8701" x="32.68" y="140.317">+qualified_name</text><text fill="#000000" font-family="Verdana" font-size="14" lengthAdjust="spacing" textLength="54.4346" x="32.68" y="156.6139">+lineno</text><text fill="#000000" font-family="Verdana" font-size="14" lengthAdjust="spacing" textLength="87.8076" x="32.68" y="172.9107">+end_lineno</text><text fill="#000000" font-family="Verdana" font-size="14" lengthAdjust="spacing" textLength="77.0684" x="32.68" y="189.2076">+docstring</text><line style="stroke:#000000;stroke-width:1;" x1="27.68" x2="156.5501" y1="196.5094" y2="196.5094"/><text fill="#000000" font-family="Verdana" font-size="14" lengthAdjust="spacing" textLength="88.9082" x="32.68" y="213.5045">+signature()</text></g><!--class ClassNode--><g class="entity" data-qualified-name="ClassNode" data-source-line="14" id="ent0003"><rect fill="#FFFFFF" height="170.3438" rx="2.5" ry="2.5" style="stroke:#000000;stroke-width:1;" width="152.5127" x="192.86" y="58.6094"/><ellipse cx="228.8742" cy="78.7422" fill="#FFFFFF" rx="9" ry="9" style="stroke:#000000;stroke-width:1;"/><path d="M231.8429,84.3828 Q231.2648,84.6797 230.6242,84.8203 Q229.9835,84.9766 229.2804,84.9766 Q226.7804,84.9766 225.4523,83.3359 Q224.1398,81.6797 224.1398,78.5547 Q224.1398,75.4297 225.4523,73.7734 Q226.7804,72.1172 229.2804,72.1172 Q229.9835,72.1172 230.6242,72.2734 Q231.2804,72.4297 231.8429,72.7266 L231.8429,75.4453 Q231.2179,74.8672 230.6242,74.6016 Q230.0304,74.3203 229.4054,74.3203 Q228.0617,74.3203 227.3742,75.3984 Q226.6867,76.4609 226.6867,78.5547 Q226.6867,80.6484 227.3742,81.7266 Q228.0617,82.7891 229.4054,82.7891 Q230.0304,82.7891 230.6242,82.5234 Q231.2179,82.2422 231.8429,81.6641 L231.8429,84.3828 Z " fill="#000000"/><text fill="#000000" font-family="Verdana" font-size="12" font-style="italic" lengthAdjust="spacing" textLength="71.502" x="246.9225" y="74.748">&#171;dataclass&#187;</text><text fill="#000000" font-family="Verdana" font-size="14" lengthAdjust="spacing" textLength="73.3701" x="245.9884" y="90.5732">ClassNode</text><line style="stroke:#000000;stroke-width:1;" x1="193.86" x2="344.3727" y1="98.875" y2="98.875"/><text fill="#000000" font-family="Verdana" font-size="14" lengthAdjust="spacing" textLength="51.4336" x="198.86" y="115.8701">+name</text><text fill="#000000" font-family="Verdana" font-size="14" lengthAdjust="spacing" textLength="118.8701" x="198.86" y="132.167">+qualified_name</text><text fill="#000000" font-family="Verdana" font-size="14" lengthAdjust="spacing" textLength="54.4346" x="198.86" y="148.4639">+lineno</text><text fill="#000000" font-family="Verdana" font-size="14" lengthAdjust="spacing" textLength="87.8076" x="198.86" y="164.7607">+end_lineno</text><text fill="#000000" font-family="Verdana" font-size="14" lengthAdjust="spacing" textLength="77.0684" x="198.86" y="181.0576">+docstring</text><line style="stroke:#000000;stroke-width:1;" x1="193.86" x2="344.3727" y1="188.3594" y2="188.3594"/><text fill="#000000" font-family="Verdana" font-size="14" lengthAdjust="spacing" textLength="133.1367" x="198.86" y="205.3545">+public_methods()</text><text fill="#000000" font-family="Verdana" font-size="14" lengthAdjust="spacing" textLength="140.5127" x="198.86" y="221.6514">+private_methods()</text></g><!--class ImportNode--><g class="entity" data-qualified-name="ImportNode" data-source-line="24" id="ent0004"><rect fill="#FFFFFF" height="121.4531" rx="2.5" ry="2.5" style="stroke:#000000;stroke-width:1;" width="111.002" x="380.62" y="83.0594"/><ellipse cx="393.62" cy="103.1922" fill="#FFFFFF" rx="9" ry="9" style="stroke:#000000;stroke-width:1;"/><path d="M396.5888,108.8328 Q396.0106,109.1297 395.37,109.2703 Q394.7294,109.4266 394.0263,109.4266 Q391.5263,109.4266 390.1981,107.7859 Q388.8856,106.1297 388.8856,103.0047 Q388.8856,99.8797 390.1981,98.2234 Q391.5263,96.5672 394.0263,96.5672 Q394.7294,96.5672 395.37,96.7234 Q396.0263,96.8797 396.5888,97.1766 L396.5888,99.8953 Q395.9638,99.3172 395.37,99.0516 Q394.7763,98.7703 394.1513,98.7703 Q392.8075,98.7703 392.12,99.8484 Q391.4325,100.9109 391.4325,103.0047 Q391.4325,105.0984 392.12,106.1766 Q392.8075,107.2391 394.1513,107.2391 Q394.7763,107.2391 395.37,106.9734 Q395.9638,106.6922 396.5888,106.1141 L396.5888,108.8328 Z " fill="#000000"/><text fill="#000000" font-family="Verdana" font-size="12" font-style="italic" lengthAdjust="spacing" textLength="71.502" x="411.37" y="99.198">&#171;dataclass&#187;</text><text fill="#000000" font-family="Verdana" font-size="14" lengthAdjust="spacing" textLength="83.002" x="405.62" y="115.0232">ImportNode</text><line style="stroke:#000000;stroke-width:1;" x1="381.62" x2="490.622" y1="123.325" y2="123.325"/><text fill="#000000" font-family="Verdana" font-size="14" lengthAdjust="spacing" textLength="64.1963" x="386.62" y="140.3201">+module</text><text fill="#000000" font-family="Verdana" font-size="14" lengthAdjust="spacing" textLength="58.7275" x="386.62" y="156.617">+names</text><text fill="#000000" font-family="Verdana" font-size="14" lengthAdjust="spacing" textLength="83.0293" x="386.62" y="172.9139">+is_relative</text><text fill="#000000" font-family="Verdana" font-size="14" lengthAdjust="spacing" textLength="45.0215" x="386.62" y="189.2107">+level</text><line style="stroke:#000000;stroke-width:1;" x1="381.62" x2="490.622" y1="196.5125" y2="196.5125"/></g><!--class ModuleNode--><g class="entity" data-qualified-name="ModuleNode" data-source-line="31" id="ent0005"><rect fill="#FFFFFF" height="154.0469" rx="2.5" ry="2.5" style="stroke:#000000;stroke-width:1;" width="116.3643" x="526.94" y="66.7594"/><ellipse cx="540.3535" cy="86.8922" fill="#FFFFFF" rx="9" ry="9" style="stroke:#000000;stroke-width:1;"/><path d="M543.3223,92.5328 Q542.7442,92.8297 542.1035,92.9703 Q541.4629,93.1266 540.7598,93.1266 Q538.2598,93.1266 536.9317,91.4859 Q535.6192,89.8297 535.6192,86.7047 Q535.6192,83.5797 536.9317,81.9234 Q538.2598,80.2672 540.7598,80.2672 Q541.4629,80.2672 542.1035,80.4234 Q542.7598,80.5797 543.3223,80.8766 L543.3223,83.5953 Q542.6973,83.0172 542.1035,82.7516 Q541.5098,82.4703 540.8848,82.4703 Q539.541,82.4703 538.8535,83.5484 Q538.166,84.6109 538.166,86.7047 Q538.166,88.7984 538.8535,89.8766 Q539.541,90.9391 540.8848,90.9391 Q541.5098,90.9391 542.1035,90.6734 Q542.6973,90.3922 543.3223,89.8141 L543.3223,92.5328 Z " fill="#000000"/><text fill="#000000" font-family="Verdana" font-size="12" font-style="italic" lengthAdjust="spacing" textLength="71.502" x="560.4171" y="82.898">&#171;dataclass&#187;</text><text fill="#000000" font-family="Verdana" font-size="14" lengthAdjust="spacing" textLength="87.4453" x="552.4454" y="98.7232">ModuleNode</text><line style="stroke:#000000;stroke-width:1;" x1="527.94" x2="642.3043" y1="107.025" y2="107.025"/><text fill="#000000" font-family="Verdana" font-size="14" lengthAdjust="spacing" textLength="43.5586" x="532.94" y="124.0201">+path</text><text fill="#000000" font-family="Verdana" font-size="14" lengthAdjust="spacing" textLength="103.6738" x="532.94" y="140.317">+relative_path</text><text fill="#000000" font-family="Verdana" font-size="14" lengthAdjust="spacing" textLength="104.3643" x="532.94" y="156.6139">+dotted_name</text><text fill="#000000" font-family="Verdana" font-size="14" lengthAdjust="spacing" textLength="100.9326" x="532.94" y="172.9107">+lineno_count</text><text fill="#000000" font-family="Verdana" font-size="14" lengthAdjust="spacing" textLength="77.0684" x="532.94" y="189.2076">+docstring</text><line style="stroke:#000000;stroke-width:1;" x1="527.94" x2="642.3043" y1="196.5094" y2="196.5094"/><text fill="#000000" font-family="Verdana" font-size="14" lengthAdjust="spacing" textLength="62.9795" x="532.94" y="213.5045">+is_init()</text></g><!--class SubsystemCluster--><g class="entity" data-qualified-name="SubsystemCluster" data-source-line="40" id="ent0006"><rect fill="#FFFFFF" height="154.0469" rx="2.5" ry="2.5" style="stroke:#000000;stroke-width:1;" width="154.9502" x="14.64" y="313.3994"/><ellipse cx="27.64" cy="333.5322" fill="#FFFFFF" rx="9" ry="9" style="stroke:#000000;stroke-width:1;"/><path d="M30.6088,339.1728 Q30.0306,339.4697 29.39,339.6103 Q28.7494,339.7666 28.0463,339.7666 Q25.5463,339.7666 24.2181,338.1259 Q22.9056,336.4697 22.9056,333.3447 Q22.9056,330.2197 24.2181,328.5634 Q25.5463,326.9072 28.0463,326.9072 Q28.7494,326.9072 29.39,327.0634 Q30.0463,327.2197 30.6088,327.5166 L30.6088,330.2353 Q29.9838,329.6572 29.39,329.3916 Q28.7963,329.1103 28.1713,329.1103 Q26.8275,329.1103 26.14,330.1884 Q25.4525,331.2509 25.4525,333.3447 Q25.4525,335.4384 26.14,336.5166 Q26.8275,337.5791 28.1713,337.5791 Q28.7963,337.5791 29.39,337.3134 Q29.9838,337.0322 30.6088,336.4541 L30.6088,339.1728 Z " fill="#000000"/><text fill="#000000" font-family="Verdana" font-size="12" font-style="italic" lengthAdjust="spacing" textLength="71.502" x="67.3641" y="329.538">&#171;dataclass&#187;</text><text fill="#000000" font-family="Verdana" font-size="14" lengthAdjust="spacing" textLength="126.9502" x="39.64" y="345.3632">SubsystemCluster</text><line style="stroke:#000000;stroke-width:1;" x1="15.64" x2="168.5902" y1="353.665" y2="353.665"/><text fill="#000000" font-family="Verdana" font-size="14" lengthAdjust="spacing" textLength="51.4336" x="20.64" y="370.6601">+name</text><text fill="#000000" font-family="Verdana" font-size="14" lengthAdjust="spacing" textLength="89.5713" x="20.64" y="386.957">+description</text><text fill="#000000" font-family="Verdana" font-size="14" lengthAdjust="spacing" textLength="71.4902" x="20.64" y="403.2539">+modules</text><line style="stroke:#000000;stroke-width:1;" x1="15.64" x2="168.5902" y1="410.5556" y2="410.5556"/><text fill="#000000" font-family="Verdana" font-size="14" lengthAdjust="spacing" textLength="94.2266" x="20.64" y="427.5507">+total_lines()</text><text fill="#000000" font-family="Verdana" font-size="14" lengthAdjust="spacing" textLength="112.3281" x="20.64" y="443.8476">+total_classes()</text><text fill="#000000" font-family="Verdana" font-size="14" lengthAdjust="spacing" textLength="126.1504" x="20.64" y="460.1445">+total_functions()</text></g><!--class DependencyInfo--><g class="entity" data-qualified-name="DependencyInfo" data-source-line="49" id="ent0007"><rect fill="#FFFFFF" height="105.1563" rx="2.5" ry="2.5" style="stroke:#000000;stroke-width:1;" width="142.6182" x="204.81" y="337.8494"/><ellipse cx="217.81" cy="357.9822" fill="#FFFFFF" rx="9" ry="9" style="stroke:#000000;stroke-width:1;"/><path d="M220.7788,363.6228 Q220.2006,363.9197 219.56,364.0603 Q218.9194,364.2166 218.2163,364.2166 Q215.7163,364.2166 214.3881,362.5759 Q213.0756,360.9197 213.0756,357.7947 Q213.0756,354.6697 214.3881,353.0134 Q215.7163,351.3572 218.2163,351.3572 Q218.9194,351.3572 219.56,351.5134 Q220.2163,351.6697 220.7788,351.9666 L220.7788,354.6853 Q220.1538,354.1072 219.56,353.8416 Q218.9663,353.5603 218.3413,353.5603 Q216.9975,353.5603 216.31,354.6384 Q215.6225,355.7009 215.6225,357.7947 Q215.6225,359.8884 216.31,360.9666 Q216.9975,362.0291 218.3413,362.0291 Q218.9663,362.0291 219.56,361.7634 Q220.1538,361.4822 220.7788,360.9041 L220.7788,363.6228 Z " fill="#000000"/><text fill="#000000" font-family="Verdana" font-size="12" font-style="italic" lengthAdjust="spacing" textLength="71.502" x="251.3681" y="353.988">&#171;dataclass&#187;</text><text fill="#000000" font-family="Verdana" font-size="14" lengthAdjust="spacing" textLength="114.6182" x="229.81" y="369.8132">DependencyInfo</text><line style="stroke:#000000;stroke-width:1;" x1="205.81" x2="346.4282" y1="378.115" y2="378.115"/><text fill="#000000" font-family="Verdana" font-size="14" lengthAdjust="spacing" textLength="51.4336" x="210.81" y="395.1101">+name</text><text fill="#000000" font-family="Verdana" font-size="14" lengthAdjust="spacing" textLength="102.498" x="210.81" y="411.407">+version_spec</text><text fill="#000000" font-family="Verdana" font-size="14" lengthAdjust="spacing" textLength="73.6025" x="210.81" y="427.7039">+category</text><line style="stroke:#000000;stroke-width:1;" x1="205.81" x2="346.4282" y1="435.0056" y2="435.0056"/></g><!--class ProjectModel--><g class="entity" data-qualified-name="ProjectModel" data-source-line="55" id="ent0008"><rect fill="#FFFFFF" height="202.9375" rx="2.5" ry="2.5" style="stroke:#000000;stroke-width:1;" width="164.2227" x="382.01" y="288.9594"/><ellipse cx="415.5909" cy="309.0922" fill="#FFFFFF" rx="9" ry="9" style="stroke:#000000;stroke-width:1;"/><path d="M418.5597,314.7328 Q417.9815,315.0297 417.3409,315.1703 Q416.7003,315.3266 415.9972,315.3266 Q413.4972,315.3266 412.169,313.6859 Q410.8565,312.0297 410.8565,308.9047 Q410.8565,305.7797 412.169,304.1234 Q413.4972,302.4672 415.9972,302.4672 Q416.7003,302.4672 417.3409,302.6234 Q417.9972,302.7797 418.5597,303.0766 L418.5597,305.7953 Q417.9347,305.2172 417.3409,304.9516 Q416.7472,304.6703 416.1222,304.6703 Q414.7784,304.6703 414.0909,305.7484 Q413.4034,306.8109 413.4034,308.9047 Q413.4034,310.9984 414.0909,312.0766 Q414.7784,313.1391 416.1222,313.1391 Q416.7472,313.1391 417.3409,312.8734 Q417.9347,312.5922 418.5597,312.0141 L418.5597,314.7328 Z " fill="#000000"/><text fill="#000000" font-family="Verdana" font-size="12" font-style="italic" lengthAdjust="spacing" textLength="71.502" x="441.6571" y="305.098">&#171;dataclass&#187;</text><text fill="#000000" font-family="Verdana" font-size="14" lengthAdjust="spacing" textLength="90.4873" x="432.1644" y="320.9232">ProjectModel</text><line style="stroke:#000000;stroke-width:1;" x1="383.01" x2="545.2327" y1="329.225" y2="329.225"/><text fill="#000000" font-family="Verdana" font-size="14" lengthAdjust="spacing" textLength="107.3311" x="388.01" y="346.2201">+project_name</text><text fill="#000000" font-family="Verdana" font-size="14" lengthAdjust="spacing" textLength="63.0068" x="388.01" y="362.517">+version</text><text fill="#000000" font-family="Verdana" font-size="14" lengthAdjust="spacing" textLength="125.3848" x="388.01" y="378.8139">+python_requires</text><text fill="#000000" font-family="Verdana" font-size="14" lengthAdjust="spacing" textLength="40.1064" x="388.01" y="395.1107">+root</text><text fill="#000000" font-family="Verdana" font-size="14" lengthAdjust="spacing" textLength="71.4902" x="388.01" y="411.4076">+modules</text><line style="stroke:#000000;stroke-width:1;" x1="383.01" x2="545.2327" y1="418.7094" y2="418.7094"/><text fill="#000000" font-family="Verdana" font-size="14" lengthAdjust="spacing" textLength="94.2266" x="388.01" y="435.7045">+total_lines()</text><text fill="#000000" font-family="Verdana" font-size="14" lengthAdjust="spacing" textLength="96.6738" x="388.01" y="452.0014">+all_classes()</text><text fill="#000000" font-family="Verdana" font-size="14" lengthAdjust="spacing" textLength="110.4961" x="388.01" y="468.2982">+all_functions()</text><text fill="#000000" font-family="Verdana" font-size="14" lengthAdjust="spacing" textLength="152.2227" x="388.01" y="484.5951">+module_by_dotted()</text></g><!--class PatternKind--><g class="entity" data-qualified-name="PatternKind" data-source-line="67" id="ent0009"><rect fill="#FFFFFF" height="137.75" rx="2.5" ry="2.5" style="stroke:#000000;stroke-width:1;" width="190.083" x="581.08" y="321.5494"/><ellipse cx="631.3354" cy="341.6822" fill="#FFFFFF" rx="9" ry="9" style="stroke:#000000;stroke-width:1;"/><path d="M635.4447,347.6822 L627.726,347.6822 L627.726,335.2916 L635.4447,335.2916 L635.4447,337.4478 L630.1791,337.4478 L630.1791,340.1197 L634.9447,340.1197 L634.9447,342.2759 L630.1791,342.2759 L630.1791,345.5259 L635.4447,345.5259 L635.4447,347.6822 Z " fill="#000000"/><text fill="#000000" font-family="Verdana" font-size="12" font-style="italic" lengthAdjust="spacing" textLength="49.166" x="665.2885" y="337.688">&#171;Enum&#187;</text><text fill="#000000" font-family="Verdana" font-size="14" lengthAdjust="spacing" textLength="82.0723" x="648.8354" y="353.5132">PatternKind</text><line style="stroke:#000000;stroke-width:1;" x1="582.08" x2="770.163" y1="361.815" y2="361.815"/><text fill="#000000" font-family="Verdana" font-size="14" lengthAdjust="spacing" textLength="161.5879" x="587.08" y="378.8101">+PROTOCOL_ADAPTER</text><text fill="#000000" font-family="Verdana" font-size="14" lengthAdjust="spacing" textLength="153.2275" x="587.08" y="395.107">+TEMPLATE_METHOD</text><text fill="#000000" font-family="Verdana" font-size="14" lengthAdjust="spacing" textLength="76.9863" x="587.08" y="411.4039">+FACTORY</text><text fill="#000000" font-family="Verdana" font-size="14" lengthAdjust="spacing" textLength="176.2441" x="587.08" y="427.7007">+MIDDLEWARE_PIPELINE</text><text fill="#000000" font-family="Verdana" font-size="14" lengthAdjust="spacing" textLength="178.083" x="587.08" y="443.9976">+OBSERVER_STREAMING</text><line style="stroke:#000000;stroke-width:1;" x1="582.08" x2="770.163" y1="451.2994" y2="451.2994"/></g><!--class PatternInstance--><g class="entity" data-qualified-name="PatternInstance" data-source-line="75" id="ent0010"><rect fill="#FFFFFF" height="137.75" rx="2.5" ry="2.5" style="stroke:#000000;stroke-width:1;" width="138.79" x="22.72" y="576.3394"/><ellipse cx="35.72" cy="596.4722" fill="#FFFFFF" rx="9" ry="9" style="stroke:#000000;stroke-width:1;"/><path d="M38.6888,602.1128 Q38.1106,602.4097 37.47,602.5503 Q36.8294,602.7066 36.1263,602.7066 Q33.6263,602.7066 32.2981,601.0659 Q30.9856,599.4097 30.9856,596.2847 Q30.9856,593.1597 32.2981,591.5034 Q33.6263,589.8472 36.1263,589.8472 Q36.8294,589.8472 37.47,590.0034 Q38.1263,590.1597 38.6888,590.4566 L38.6888,593.1753 Q38.0638,592.5972 37.47,592.3316 Q36.8763,592.0503 36.2513,592.0503 Q34.9075,592.0503 34.22,593.1284 Q33.5325,594.1909 33.5325,596.2847 Q33.5325,598.3784 34.22,599.4566 Q34.9075,600.5191 36.2513,600.5191 Q36.8763,600.5191 37.47,600.2534 Q38.0638,599.9722 38.6888,599.3941 L38.6888,602.1128 Z " fill="#000000"/><text fill="#000000" font-family="Verdana" font-size="12" font-style="italic" lengthAdjust="spacing" textLength="71.502" x="67.364" y="592.478">&#171;dataclass&#187;</text><text fill="#000000" font-family="Verdana" font-size="14" lengthAdjust="spacing" textLength="110.79" x="47.72" y="608.3032">PatternInstance</text><line style="stroke:#000000;stroke-width:1;" x1="23.72" x2="160.51" y1="616.605" y2="616.605"/><text fill="#000000" font-family="Verdana" font-size="14" lengthAdjust="spacing" textLength="41.4873" x="28.72" y="633.6001">+kind</text><text fill="#000000" font-family="Verdana" font-size="14" lengthAdjust="spacing" textLength="39.1016" x="28.72" y="649.897">+title</text><text fill="#000000" font-family="Verdana" font-size="14" lengthAdjust="spacing" textLength="89.5713" x="28.72" y="666.1939">+description</text><text fill="#000000" font-family="Verdana" font-size="14" lengthAdjust="spacing" textLength="40.3457" x="28.72" y="682.4907">+files</text><text fill="#000000" font-family="Verdana" font-size="14" lengthAdjust="spacing" textLength="62.3916" x="28.72" y="698.7876">+classes</text><line style="stroke:#000000;stroke-width:1;" x1="23.72" x2="160.51" y1="706.0894" y2="706.0894"/></g><!--class ArchitectureKnowledge--><g class="entity" data-qualified-name="ArchitectureKnowledge" data-source-line="83" id="ent0011"><rect fill="#FFFFFF" height="72.5625" rx="2.5" ry="2.5" style="stroke:#000000;stroke-width:1;" width="191.2832" x="196.48" y="608.9294"/><ellipse cx="209.48" cy="629.0622" fill="#FFFFFF" rx="9" ry="9" style="stroke:#000000;stroke-width:1;"/><path d="M212.4488,634.7028 Q211.8706,634.9997 211.23,635.1403 Q210.5894,635.2966 209.8863,635.2966 Q207.3863,635.2966 206.0581,633.6559 Q204.7456,631.9997 204.7456,628.8747 Q204.7456,625.7497 206.0581,624.0934 Q207.3863,622.4372 209.8863,622.4372 Q210.5894,622.4372 211.23,622.5934 Q211.8863,622.7497 212.4488,623.0466 L212.4488,625.7653 Q211.8238,625.1872 211.23,624.9216 Q210.6363,624.6403 210.0113,624.6403 Q208.6675,624.6403 207.98,625.7184 Q207.2925,626.7809 207.2925,628.8747 Q207.2925,630.9684 207.98,632.0466 Q208.6675,633.1091 210.0113,633.1091 Q210.6363,633.1091 211.23,632.8434 Q211.8238,632.5622 212.4488,631.9841 L212.4488,634.7028 Z " fill="#000000"/><text fill="#000000" font-family="Verdana" font-size="12" font-style="italic" lengthAdjust="spacing" textLength="71.502" x="267.3706" y="625.068">&#171;dataclass&#187;</text><text fill="#000000" font-family="Verdana" font-size="14" lengthAdjust="spacing" textLength="163.2832" x="221.48" y="640.8932">ArchitectureKnowledge</text><line style="stroke:#000000;stroke-width:1;" x1="197.48" x2="386.7632" y1="649.195" y2="649.195"/><text fill="#000000" font-family="Verdana" font-size="14" lengthAdjust="spacing" textLength="70.7109" x="202.48" y="666.1901">+patterns</text><line style="stroke:#000000;stroke-width:1;" x1="197.48" x2="386.7632" y1="673.4919" y2="673.4919"/></g><!--class WikiBuildState--><g class="entity" data-qualified-name="WikiBuildState" data-source-line="87" id="ent0012"><rect fill="#FFFFFF" height="186.6406" rx="2.5" ry="2.5" style="stroke:#000000;stroke-width:1;" width="140.6729" x="422.78" y="551.8894"/><ellipse cx="440.614" cy="572.0222" fill="#FFFFFF" rx="9" ry="9" style="stroke:#000000;stroke-width:1;"/><path d="M443.5827,577.6628 Q443.0046,577.9597 442.364,578.1003 Q441.7234,578.2566 441.0202,578.2566 Q438.5202,578.2566 437.1921,576.6159 Q435.8796,574.9597 435.8796,571.8347 Q435.8796,568.7097 437.1921,567.0534 Q438.5202,565.3972 441.0202,565.3972 Q441.7234,565.3972 442.364,565.5534 Q443.0202,565.7097 443.5827,566.0066 L443.5827,568.7253 Q442.9577,568.1472 442.364,567.8816 Q441.7702,567.6003 441.1452,567.6003 Q439.8015,567.6003 439.114,568.6784 Q438.4265,569.7409 438.4265,571.8347 Q438.4265,573.9284 439.114,575.0066 Q439.8015,576.0691 441.1452,576.0691 Q441.7702,576.0691 442.364,575.8034 Q442.9577,575.5222 443.5827,574.9441 L443.5827,577.6628 Z " fill="#000000"/><text fill="#000000" font-family="Verdana" font-size="12" font-style="italic" lengthAdjust="spacing" textLength="66.2344" x="471.5363" y="568.028">&#171;Pydantic&#187;</text><text fill="#000000" font-family="Verdana" font-size="14" lengthAdjust="spacing" textLength="101.9307" x="453.6882" y="583.8532">WikiBuildState</text><line style="stroke:#000000;stroke-width:1;" x1="423.78" x2="562.4529" y1="592.155" y2="592.155"/><text fill="#000000" font-family="Verdana" font-size="14" lengthAdjust="spacing" textLength="96.3936" x="428.78" y="609.1501">+commit_sha</text><text fill="#000000" font-family="Verdana" font-size="14" lengthAdjust="spacing" textLength="128.6729" x="428.78" y="625.447">+build_timestamp</text><text fill="#000000" font-family="Verdana" font-size="14" lengthAdjust="spacing" textLength="118.9043" x="428.78" y="641.7439">+project_version</text><text fill="#000000" font-family="Verdana" font-size="14" lengthAdjust="spacing" textLength="117.9883" x="428.78" y="658.0407">+modules_count</text><text fill="#000000" font-family="Verdana" font-size="14" lengthAdjust="spacing" textLength="126.4717" x="428.78" y="674.3376">+diagram_hashes</text><line style="stroke:#000000;stroke-width:1;" x1="423.78" x2="562.4529" y1="681.6394" y2="681.6394"/><text fill="#000000" font-family="Verdana" font-size="14" lengthAdjust="spacing" textLength="55.4258" x="428.78" y="698.6345">+save()</text><text fill="#000000" font-family="Verdana" font-size="14" lengthAdjust="spacing" text-decoration="underline" textLength="52.5752" x="428.78" y="714.9314">+load()</text><text fill="#000000" font-family="Verdana" font-size="14" lengthAdjust="spacing" text-decoration="underline" textLength="67.4023" x="428.78" y="731.2282">+create()</text></g><!--class BuildMode--><g class="entity" data-qualified-name="BuildMode" data-source-line="98" id="ent0013"><rect fill="#FFFFFF" height="105.1563" rx="2.5" ry="2.5" style="stroke:#000000;stroke-width:1;" width="124.0068" x="598.12" y="592.6294"/><ellipse cx="621.3434" cy="612.7622" fill="#FFFFFF" rx="9" ry="9" style="stroke:#000000;stroke-width:1;"/><path d="M625.4528,618.7622 L617.7341,618.7622 L617.7341,606.3716 L625.4528,606.3716 L625.4528,608.5278 L620.1872,608.5278 L620.1872,611.1997 L624.9528,611.1997 L624.9528,613.3559 L620.1872,613.3559 L620.1872,616.6059 L625.4528,616.6059 L625.4528,618.7622 Z " fill="#000000"/><text fill="#000000" font-family="Verdana" font-size="12" font-style="italic" lengthAdjust="spacing" textLength="49.166" x="647.6763" y="608.768">&#171;Enum&#187;</text><text fill="#000000" font-family="Verdana" font-size="14" lengthAdjust="spacing" textLength="73.2881" x="635.6153" y="624.5932">BuildMode</text><line style="stroke:#000000;stroke-width:1;" x1="599.12" x2="721.1268" y1="632.895" y2="632.895"/><text fill="#000000" font-family="Verdana" font-size="14" lengthAdjust="spacing" textLength="45.6299" x="604.12" y="649.8901">+FULL</text><text fill="#000000" font-family="Verdana" font-size="14" lengthAdjust="spacing" textLength="112.0068" x="604.12" y="666.187">+INCREMENTAL</text><text fill="#000000" font-family="Verdana" font-size="14" lengthAdjust="spacing" textLength="70.4375" x="604.12" y="682.4839">+SKIPPED</text><line style="stroke:#000000;stroke-width:1;" x1="599.12" x2="721.1268" y1="689.7856" y2="689.7856"/></g><!--class WikiBuildResult--><g class="entity" data-qualified-name="WikiBuildResult" data-source-line="104" id="ent0014"><rect fill="#FFFFFF" height="154.0469" rx="2.5" ry="2.5" style="stroke:#000000;stroke-width:1;" width="160.2373" x="12" y="798.5294"/><ellipse cx="35.5649" cy="818.6622" fill="#FFFFFF" rx="9" ry="9" style="stroke:#000000;stroke-width:1;"/><path d="M38.5336,824.3028 Q37.9555,824.5997 37.3149,824.7403 Q36.6743,824.8966 35.9711,824.8966 Q33.4711,824.8966 32.143,823.2559 Q30.8305,821.5997 30.8305,818.4747 Q30.8305,815.3497 32.143,813.6934 Q33.4711,812.0372 35.9711,812.0372 Q36.6743,812.0372 37.3149,812.1934 Q37.9711,812.3497 38.5336,812.6466 L38.5336,815.3653 Q37.9086,814.7872 37.3149,814.5216 Q36.7211,814.2403 36.0961,814.2403 Q34.7524,814.2403 34.0649,815.3184 Q33.3774,816.3809 33.3774,818.4747 Q33.3774,820.5684 34.0649,821.6466 Q34.7524,822.7091 36.0961,822.7091 Q36.7211,822.7091 37.3149,822.4434 Q37.9086,822.1622 38.5336,821.5841 L38.5336,824.3028 Z " fill="#000000"/><text fill="#000000" font-family="Verdana" font-size="12" font-style="italic" lengthAdjust="spacing" textLength="71.502" x="68.5416" y="814.668">&#171;dataclass&#187;</text><text fill="#000000" font-family="Verdana" font-size="14" lengthAdjust="spacing" textLength="108.7598" x="49.9126" y="830.4932">WikiBuildResult</text><line style="stroke:#000000;stroke-width:1;" x1="13" x2="171.2373" y1="838.795" y2="838.795"/><text fill="#000000" font-family="Verdana" font-size="14" lengthAdjust="spacing" textLength="83.4395" x="18" y="855.7901">+output_dir</text><text fill="#000000" font-family="Verdana" font-size="14" lengthAdjust="spacing" textLength="92.8594" x="18" y="872.087">+build_mode</text><text fill="#000000" font-family="Verdana" font-size="14" lengthAdjust="spacing" textLength="110.5508" x="18" y="888.3839">+pages_written</text><text fill="#000000" font-family="Verdana" font-size="14" lengthAdjust="spacing" textLength="148.2373" x="18" y="904.6807">+diagrams_rendered</text><text fill="#000000" font-family="Verdana" font-size="14" lengthAdjust="spacing" textLength="134.5859" x="18" y="920.9776">+diagrams_cached</text><line style="stroke:#000000;stroke-width:1;" x1="13" x2="171.2373" y1="928.2794" y2="928.2794"/><text fill="#000000" font-family="Verdana" font-size="14" lengthAdjust="spacing" textLength="88.7168" x="18" y="945.2745">+summary()</text></g><?plantuml-src jLJTRjiW5BxFKtYvshIRFK1LoKt8PZK_bkEjsXKYS1ApOd3Xa2ghAkqXzeHxae6TD4wRTbUxmdpu7BuVu1rMK4FIA2RrmDrAtJ3BweGhvboAQENA8sJSwANy2Scd0KfKa0n7SJqPIxQ9V__vzJkvbxToE1YqXSbmuZL7QVJS21Wc5nU28MkNBY-JXq6IVDIiXZZUUQRaMeAW1qH93Th4Bz227cV2S1Vuw4sSEBdH3Bs5zny6Zq-xjgp-rvQDNod9QGrO6U72lX6pSiiGUk2HJ5OtnkAhR6eZl883BnS_fACM54EvxLZ15bIluQojUBLXmx2Auw45FG328BuGIxdn6b-831IabdWYPEbNRkSGwf7oOR1lcYl0SIkRcFrHPQiE3JBLchithmFQBgVGUdzuJlqSGnFI0SrtcLwRDqbimRfGJrq3FCvvo6XZxAxNBRVc1t0Cde8wRsVt0ttMirtQXRHroEhEIzk9iyRWl_GozKnj1FfQd-hfQaUxr3e7GFiwK6O1iVfQQX4Pam0UoER5eboC5bEQZjEy94N4IZBBfsb9w8oKNnRZ24tIKRaeliVFMJOUJybDMX2QPpcPPdCIuSNLaXJVI46NPK7IMJR_tFUi8v1fXqppywSml22YLH_VYJC7OYttzkoTwBLFBQya1i_3jRxMvbw1sBnwr2EHVl5DU7wkl5HYYI7iM9Nl1DCe-Q68cxgMI5t5ucmL_wKemzL3LZVzn7j9x-FiNPRknQCLSrMdmx4jjDazX4PXkyTmmmmJpo1k8T3gfzcIdUqlSp_BoTVfD8xPV5IG6PcNQJjTNcTvJiRd91VWlCApJXcFZKSgf3sA3gAWSt4JfDrR6SpKFN7n5GeNpO8u0JdZLGSvNzVCxgAQlm00?></g></svg>