<?plantuml 1.2026.2beta3?><svg xmlns="http://www.w3.org/2000/svg" xmlns:xlink="http://www.w3.org/1999/xlink" contentStyleType="text/css" data-diagram-type="MINDMAP" height="1709px" preserveAspectRatio="none" style="width:748px;height:1709px;background:#FFFFFF;" version="1.1" viewBox="0 0 748 1709" width="748px" zoomAndPan="magnify"><defs/><g><rect fill="#F1F1F1" height="36.2969" rx="12.5" ry="12.5" style="stroke:#181818;stroke-width:1.5;" width="131.3232" x="10" y="835.6016"/><text fill="#000000" font-family="sans-serif" font-size="14" lengthAdjust="spacing" textLength="111.3232" x="20" y="858.5967">Design Patterns</text><rect fill="#F1F1F1" height="36.2969" rx="12.5" ry="12.5" style="stroke:#181818;stroke-width:1.5;" width="137.209" x="191.3232" y="76.2969"/><text fill="#000000" font-family="sans-serif" font-size="14" lengthAdjust="spacing" textLength="117.209" x="201.3232" y="99.292">Protocol Adapter</text><rect fill="#F1F1F1" height="36.2969" rx="12.5" ry="12.5" style="stroke:#181818;stroke-width:1.5;" width="338.5889" x="378.5322" y="20"/><text fill="#000000" font-family="sans-serif" font-size="14" lengthAdjust="spacing" textLength="318.5889" x="388.5322" y="42.9951">Protocol / Adapter &#8212; UpdateCacheRepository</text><path d="M328.5322,94.4453 L338.5322,94.4453 C353.5322,94.4453 353.5322,38.1484 368.5322,38.1484 L378.5322,38.1484" fill="none" style="stroke:#181818;stroke-width:1;"/><rect fill="#F1F1F1" height="36.2969" rx="12.5" ry="12.5" style="stroke:#181818;stroke-width:1.5;" width="281.8232" x="378.5322" y="76.2969"/><text fill="#000000" font-family="sans-serif" font-size="14" lengthAdjust="spacing" textLength="261.8232" x="388.5322" y="99.292">Protocol / Adapter &#8212; UpdateGateway</text><path d="M328.5322,94.4453 L338.5322,94.4453 C353.5322,94.4453 353.5322,94.4453 368.5322,94.4453 L378.5322,94.4453" fill="none" style="stroke:#181818;stroke-width:1;"/><rect fill="#F1F1F1" height="36.2969" rx="12.5" ry="12.5" style="stroke:#181818;stroke-width:1.5;" width="247.2129" x="378.5322" y="132.5938"/><text fill="#000000" font-family="sans-serif" font-size="14" lengthAdjust="spacing" textLength="227.2129" x="388.5322" y="155.5889">Protocol / Adapter &#8212; APIAdapter</text><path d="M328.5322,94.4453 L338.5322,94.4453 C353.5322,94.4453 353.5322,150.7422 368.5322,150.7422 L378.5322,150.7422" fill="none" style="stroke:#181818;stroke-width:1;"/><path d="M141.3232,853.75 L151.3232,853.75 C166.3232,853.75 166.3232,94.4453 181.3232,94.4453 L191.3232,94.4453" fill="none" style="stroke:#181818;stroke-width:1;"/><rect fill="#F1F1F1" height="36.2969" rx="12.5" ry="12.5" style="stroke:#181818;stroke-width:1.5;" width="143.2178" x="191.3232" y="245.1875"/><text fill="#000000" font-family="sans-serif" font-size="14" lengthAdjust="spacing" textLength="123.2178" x="201.3232" y="268.1826">Template Method</text><rect fill="#F1F1F1" height="36.2969" rx="12.5" ry="12.5" style="stroke:#181818;stroke-width:1.5;" width="284.6875" x="384.541" y="188.8906"/><text fill="#000000" font-family="sans-serif" font-size="14" lengthAdjust="spacing" textLength="264.6875" x="394.541" y="211.8857">Template Method &#8212; OutputFormatter</text><path d="M334.541,263.3359 L344.541,263.3359 C359.541,263.3359 359.541,207.0391 374.541,207.0391 L384.541,207.0391" fill="none" style="stroke:#181818;stroke-width:1;"/><rect fill="#F1F1F1" height="36.2969" rx="12.5" ry="12.5" style="stroke:#181818;stroke-width:1.5;" width="229.7813" x="384.541" y="245.1875"/><text fill="#000000" font-family="sans-serif" font-size="14" lengthAdjust="spacing" textLength="209.7813" x="394.541" y="268.1826">Template Method &#8212; BaseTool</text><path d="M334.541,263.3359 L344.541,263.3359 C359.541,263.3359 359.541,263.3359 374.541,263.3359 L384.541,263.3359" fill="none" style="stroke:#181818;stroke-width:1;"/><rect fill="#F1F1F1" height="36.2969" rx="12.5" ry="12.5" style="stroke:#181818;stroke-width:1.5;" width="243.4941" x="384.541" y="301.4844"/><text fill="#000000" font-family="sans-serif" font-size="14" lengthAdjust="spacing" textLength="223.4941" x="394.541" y="324.4795">Template Method &#8212; ToolUIData</text><path d="M334.541,263.3359 L344.541,263.3359 C359.541,263.3359 359.541,319.6328 374.541,319.6328 L384.541,319.6328" fill="none" style="stroke:#181818;stroke-width:1;"/><path d="M141.3232,853.75 L151.3232,853.75 C166.3232,853.75 166.3232,263.3359 181.3232,263.3359 L191.3232,263.3359" fill="none" style="stroke:#181818;stroke-width:1;"/><rect fill="#F1F1F1" height="36.2969" rx="12.5" ry="12.5" style="stroke:#181818;stroke-width:1.5;" width="72.4248" x="191.3232" y="507.6719"/><text fill="#000000" font-family="sans-serif" font-size="14" lengthAdjust="spacing" textLength="52.4248" x="201.3232" y="530.667">Factory</text><rect fill="#F1F1F1" height="36.2969" rx="12.5" ry="12.5" style="stroke:#181818;stroke-width:1.5;" width="373.3086" x="313.748" y="357.7813"/><text fill="#000000" font-family="sans-serif" font-size="14" lengthAdjust="spacing" textLength="353.3086" x="323.748" y="380.7764">Factory &#8212; create_compact_start_session_update()</text><path d="M263.748,525.8203 L273.748,525.8203 C288.748,525.8203 288.748,375.9297 303.748,375.9297 L313.748,375.9297" fill="none" style="stroke:#181818;stroke-width:1;"/><rect fill="#F1F1F1" height="36.2969" rx="12.5" ry="12.5" style="stroke:#181818;stroke-width:1.5;" width="367.0742" x="313.748" y="414.0781"/><text fill="#000000" font-family="sans-serif" font-size="14" lengthAdjust="spacing" textLength="347.0742" x="323.748" y="437.0732">Factory &#8212; create_compact_end_session_update()</text><path d="M263.748,525.8203 L273.748,525.8203 C288.748,525.8203 288.748,432.2266 303.748,432.2266 L313.748,432.2266" fill="none" style="stroke:#181818;stroke-width:1;"/><rect fill="#F1F1F1" height="36.2969" rx="12.5" ry="12.5" style="stroke:#181818;stroke-width:1.5;" width="309.4609" x="313.748" y="470.375"/><text fill="#000000" font-family="sans-serif" font-size="14" lengthAdjust="spacing" textLength="289.4609" x="323.748" y="493.3701">Factory &#8212; create_user_message_replay()</text><path d="M263.748,525.8203 L273.748,525.8203 C288.748,525.8203 288.748,488.5234 303.748,488.5234 L313.748,488.5234" fill="none" style="stroke:#181818;stroke-width:1;"/><rect fill="#F1F1F1" height="36.2969" rx="12.5" ry="12.5" style="stroke:#181818;stroke-width:1.5;" width="341.7061" x="313.748" y="526.6719"/><text fill="#000000" font-family="sans-serif" font-size="14" lengthAdjust="spacing" textLength="321.7061" x="323.748" y="549.667">Factory &#8212; create_assistant_message_replay()</text><path d="M263.748,525.8203 L273.748,525.8203 C288.748,525.8203 288.748,544.8203 303.748,544.8203 L313.748,544.8203" fill="none" style="stroke:#181818;stroke-width:1;"/><rect fill="#F1F1F1" height="36.2969" rx="12.5" ry="12.5" style="stroke:#181818;stroke-width:1.5;" width="278.3369" x="313.748" y="582.9688"/><text fill="#000000" font-family="sans-serif" font-size="14" lengthAdjust="spacing" textLength="258.3369" x="323.748" y="605.9639">Factory &#8212; create_reasoning_replay()</text><path d="M263.748,525.8203 L273.748,525.8203 C288.748,525.8203 288.748,601.1172 303.748,601.1172 L313.748,601.1172" fill="none" style="stroke:#181818;stroke-width:1;"/><rect fill="#F1F1F1" height="36.2969" rx="12.5" ry="12.5" style="stroke:#181818;stroke-width:1.5;" width="266.5723" x="313.748" y="639.2656"/><text fill="#000000" font-family="sans-serif" font-size="14" lengthAdjust="spacing" textLength="246.5723" x="323.748" y="662.2607">Factory &#8212; create_tool_call_replay()</text><path d="M263.748,525.8203 L273.748,525.8203 C288.748,525.8203 288.748,657.4141 303.748,657.4141 L313.748,657.4141" fill="none" style="stroke:#181818;stroke-width:1;"/><text fill="#000000" font-family="sans-serif" font-size="14" lengthAdjust="spacing" textLength="70.5674" x="316.748" y="699.5576">+10 more</text><path d="M263.748,525.8203 L273.748,525.8203 C288.748,525.8203 288.748,694.7109 303.748,694.7109 L313.748,694.7109" fill="none" style="stroke:#181818;stroke-width:1;"/><path d="M141.3232,853.75 L151.3232,853.75 C166.3232,853.75 166.3232,525.8203 181.3232,525.8203 L191.3232,525.8203" fill="none" style="stroke:#181818;stroke-width:1;"/><rect fill="#F1F1F1" height="36.2969" rx="12.5" ry="12.5" style="stroke:#181818;stroke-width:1.5;" width="160.1914" x="191.3232" y="713.8594"/><text fill="#000000" font-family="sans-serif" font-size="14" lengthAdjust="spacing" textLength="140.1914" x="201.3232" y="736.8545">Middleware Pipeline</text><rect fill="#F1F1F1" height="36.2969" rx="12.5" ry="12.5" style="stroke:#181818;stroke-width:1.5;" width="334.501" x="401.5146" y="713.8594"/><text fill="#000000" font-family="sans-serif" font-size="14" lengthAdjust="spacing" textLength="314.501" x="411.5146" y="736.8545">Middleware Pipeline &#8212; vibe.core.middleware</text><path d="M351.5146,732.0078 L361.5146,732.0078 C376.5146,732.0078 376.5146,732.0078 391.5146,732.0078 L401.5146,732.0078" fill="none" style="stroke:#181818;stroke-width:1;"/><path d="M141.3232,853.75 L151.3232,853.75 C166.3232,853.75 166.3232,732.0078 181.3232,732.0078 L191.3232,732.0078" fill="none" style="stroke:#181818;stroke-width:1;"/><rect fill="#F1F1F1" height="36.2969" rx="12.5" ry="12.5" style="stroke:#181818;stroke-width:1.5;" width="161.2852" x="191.3232" y="920.0469"/><text fill="#000000" font-family="sans-serif" font-size="14" lengthAdjust="spacing" textLength="141.2852" x="201.3232" y="943.042">Observer Streaming</text><rect fill="#F1F1F1" height="36.2969" rx="12.5" ry="12.5" style="stroke:#181818;stroke-width:1.5;" width="294.0732" x="402.6084" y="770.1563"/><text fill="#000000" font-family="sans-serif" font-size="14" lengthAdjust="spacing" textLength="274.0732" x="412.6084" y="793.1514">Async Streaming &#8212; VibeAcpAgentLoop</text><path d="M352.6084,938.1953 L362.6084,938.1953 C377.6084,938.1953 377.6084,788.3047 392.6084,788.3047 L402.6084,788.3047" fill="none" style="stroke:#181818;stroke-width:1;"/><rect fill="#F1F1F1" height="36.2969" rx="12.5" ry="12.5" style="stroke:#181818;stroke-width:1.5;" width="196.0391" x="402.6084" y="826.4531"/><text fill="#000000" font-family="sans-serif" font-size="14" lengthAdjust="spacing" textLength="176.0391" x="412.6084" y="849.4482">Async Streaming &#8212; Bash</text><path d="M352.6084,938.1953 L362.6084,938.1953 C377.6084,938.1953 377.6084,844.6016 392.6084,844.6016 L402.6084,844.6016" fill="none" style="stroke:#181818;stroke-width:1;"/><rect fill="#F1F1F1" height="36.2969" rx="12.5" ry="12.5" style="stroke:#181818;stroke-width:1.5;" width="236.9453" x="402.6084" y="882.75"/><text fill="#000000" font-family="sans-serif" font-size="14" lengthAdjust="spacing" textLength="216.9453" x="412.6084" y="905.7451">Async Streaming &#8212; AgentLoop</text><path d="M352.6084,938.1953 L362.6084,938.1953 C377.6084,938.1953 377.6084,900.8984 392.6084,900.8984 L402.6084,900.8984" fill="none" style="stroke:#181818;stroke-width:1;"/><rect fill="#F1F1F1" height="36.2969" rx="12.5" ry="12.5" style="stroke:#181818;stroke-width:1.5;" width="276.3408" x="402.6084" y="939.0469"/><text fill="#000000" font-family="sans-serif" font-size="14" lengthAdjust="spacing" textLength="256.3408" x="412.6084" y="962.042">Async Streaming &#8212; GenericBackend</text><path d="M352.6084,938.1953 L362.6084,938.1953 C377.6084,938.1953 377.6084,957.1953 392.6084,957.1953 L402.6084,957.1953" fill="none" style="stroke:#181818;stroke-width:1;"/><rect fill="#F1F1F1" height="36.2969" rx="12.5" ry="12.5" style="stroke:#181818;stroke-width:1.5;" width="269.0264" x="402.6084" y="995.3438"/><text fill="#000000" font-family="sans-serif" font-size="14" lengthAdjust="spacing" textLength="249.0264" x="412.6084" y="1018.3389">Async Streaming &#8212; MistralBackend</text><path d="M352.6084,938.1953 L362.6084,938.1953 C377.6084,938.1953 377.6084,1013.4922 392.6084,1013.4922 L402.6084,1013.4922" fill="none" style="stroke:#181818;stroke-width:1;"/><rect fill="#F1F1F1" height="36.2969" rx="12.5" ry="12.5" style="stroke:#181818;stroke-width:1.5;" width="271.7949" x="402.6084" y="1051.6406"/><text fill="#000000" font-family="sans-serif" font-size="14" lengthAdjust="spacing" textLength="251.7949" x="412.6084" y="1074.6357">Async Streaming &#8212; TeleportService</text><path d="M352.6084,938.1953 L362.6084,938.1953 C377.6084,938.1953 377.6084,1069.7891 392.6084,1069.7891 L402.6084,1069.7891" fill="none" style="stroke:#181818;stroke-width:1;"/><text fill="#000000" font-family="sans-serif" font-size="14" lengthAdjust="spacing" textLength="70.5674" x="405.6084" y="1111.9326">+14 more</text><path d="M352.6084,938.1953 L362.6084,938.1953 C377.6084,938.1953 377.6084,1107.0859 392.6084,1107.0859 L402.6084,1107.0859" fill="none" style="stroke:#181818;stroke-width:1;"/><path d="M141.3232,853.75 L151.3232,853.75 C166.3232,853.75 166.3232,938.1953 181.3232,938.1953 L191.3232,938.1953" fill="none" style="stroke:#181818;stroke-width:1;"/><rect fill="#F1F1F1" height="36.2969" rx="12.5" ry="12.5" style="stroke:#181818;stroke-width:1.5;" width="119.7773" x="191.3232" y="1210.6797"/><text fill="#000000" font-family="sans-serif" font-size="14" lengthAdjust="spacing" textLength="99.7773" x="201.3232" y="1233.6748">Autodiscovery</text><rect fill="#F1F1F1" height="36.2969" rx="12.5" ry="12.5" style="stroke:#181818;stroke-width:1.5;" width="260.7959" x="361.1006" y="1126.2344"/><text fill="#000000" font-family="sans-serif" font-size="14" lengthAdjust="spacing" textLength="240.7959" x="371.1006" y="1149.2295">Auto-Discovery &#8212; HistoryManager</text><path d="M311.1006,1228.8281 L321.1006,1228.8281 C336.1006,1228.8281 336.1006,1144.3828 351.1006,1144.3828 L361.1006,1144.3828" fill="none" style="stroke:#181818;stroke-width:1;"/><rect fill="#F1F1F1" height="36.2969" rx="12.5" ry="12.5" style="stroke:#181818;stroke-width:1.5;" width="252.4287" x="361.1006" y="1182.5313"/><text fill="#000000" font-family="sans-serif" font-size="14" lengthAdjust="spacing" textLength="232.4287" x="371.1006" y="1205.5264">Auto-Discovery &#8212; AgentManager</text><path d="M311.1006,1228.8281 L321.1006,1228.8281 C336.1006,1228.8281 336.1006,1200.6797 351.1006,1200.6797 L361.1006,1200.6797" fill="none" style="stroke:#181818;stroke-width:1;"/><rect fill="#F1F1F1" height="36.2969" rx="12.5" ry="12.5" style="stroke:#181818;stroke-width:1.5;" width="239.6523" x="361.1006" y="1238.8281"/><text fill="#000000" font-family="sans-serif" font-size="14" lengthAdjust="spacing" textLength="219.6523" x="371.1006" y="1261.8232">Auto-Discovery &#8212; SkillManager</text><path d="M311.1006,1228.8281 L321.1006,1228.8281 C336.1006,1228.8281 336.1006,1256.9766 351.1006,1256.9766 L361.1006,1256.9766" fill="none" style="stroke:#181818;stroke-width:1;"/><rect fill="#F1F1F1" height="36.2969" rx="12.5" ry="12.5" style="stroke:#181818;stroke-width:1.5;" width="240.5615" x="361.1006" y="1295.125"/><text fill="#000000" font-family="sans-serif" font-size="14" lengthAdjust="spacing" textLength="220.5615" x="371.1006" y="1318.1201">Auto-Discovery &#8212; ToolManager</text><path d="M311.1006,1228.8281 L321.1006,1228.8281 C336.1006,1228.8281 336.1006,1313.2734 351.1006,1313.2734 L361.1006,1313.2734" fill="none" style="stroke:#181818;stroke-width:1;"/><path d="M141.3232,853.75 L151.3232,853.75 C166.3232,853.75 166.3232,1228.8281 181.3232,1228.8281 L191.3232,1228.8281" fill="none" style="stroke:#181818;stroke-width:1;"/><rect fill="#F1F1F1" height="36.2969" rx="12.5" ry="12.5" style="stroke:#181818;stroke-width:1.5;" width="126.5313" x="191.3232" y="1501.3125"/><text fill="#000000" font-family="sans-serif" font-size="14" lengthAdjust="spacing" textLength="106.5313" x="201.3232" y="1524.3076">Config As Code</text><rect fill="#F1F1F1" height="36.2969" rx="12.5" ry="12.5" style="stroke:#181818;stroke-width:1.5;" width="298.0996" x="367.8545" y="1351.4219"/><text fill="#000000" font-family="sans-serif" font-size="14" lengthAdjust="spacing" textLength="278.0996" x="377.8545" y="1374.417">Config-as-Code &#8212; ProjectContextConfig</text><path d="M317.8545,1519.4609 L327.8545,1519.4609 C342.8545,1519.4609 342.8545,1369.5703 357.8545,1369.5703 L367.8545,1369.5703" fill="none" style="stroke:#181818;stroke-width:1;"/><rect fill="#F1F1F1" height="36.2969" rx="12.5" ry="12.5" style="stroke:#181818;stroke-width:1.5;" width="303.7598" x="367.8545" y="1407.7188"/><text fill="#000000" font-family="sans-serif" font-size="14" lengthAdjust="spacing" textLength="283.7598" x="377.8545" y="1430.7139">Config-as-Code &#8212; SessionLoggingConfig</text><path d="M317.8545,1519.4609 L327.8545,1519.4609 C342.8545,1519.4609 342.8545,1425.8672 357.8545,1425.8672 L367.8545,1425.8672" fill="none" style="stroke:#181818;stroke-width:1;"/><rect fill="#F1F1F1" height="36.2969" rx="12.5" ry="12.5" style="stroke:#181818;stroke-width:1.5;" width="252.75" x="367.8545" y="1464.0156"/><text fill="#000000" font-family="sans-serif" font-size="14" lengthAdjust="spacing" textLength="232.75" x="377.8545" y="1487.0107">Config-as-Code &#8212; ProviderConfig</text><path d="M317.8545,1519.4609 L327.8545,1519.4609 C342.8545,1519.4609 342.8545,1482.1641 357.8545,1482.1641 L367.8545,1482.1641" fill="none" style="stroke:#181818;stroke-width:1;"/><rect fill="#F1F1F1" height="36.2969" rx="12.5" ry="12.5" style="stroke:#181818;stroke-width:1.5;" width="236.5898" x="367.8545" y="1520.3125"/><text fill="#000000" font-family="sans-serif" font-size="14" lengthAdjust="spacing" textLength="216.5898" x="377.8545" y="1543.3076">Config-as-Code &#8212; ModelConfig</text><path d="M317.8545,1519.4609 L327.8545,1519.4609 C342.8545,1519.4609 342.8545,1538.4609 357.8545,1538.4609 L367.8545,1538.4609" fill="none" style="stroke:#181818;stroke-width:1;"/><rect fill="#F1F1F1" height="36.2969" rx="12.5" ry="12.5" style="stroke:#181818;stroke-width:1.5;" width="225.5225" x="367.8545" y="1576.6094"/><text fill="#000000" font-family="sans-serif" font-size="14" lengthAdjust="spacing" textLength="205.5225" x="377.8545" y="1599.6045">Config-as-Code &#8212; VibeConfig</text><path d="M317.8545,1519.4609 L327.8545,1519.4609 C342.8545,1519.4609 342.8545,1594.7578 357.8545,1594.7578 L367.8545,1594.7578" fill="none" style="stroke:#181818;stroke-width:1;"/><rect fill="#F1F1F1" height="36.2969" rx="12.5" ry="12.5" style="stroke:#181818;stroke-width:1.5;" width="250.5762" x="367.8545" y="1632.9063"/><text fill="#000000" font-family="sans-serif" font-size="14" lengthAdjust="spacing" textLength="230.5762" x="377.8545" y="1655.9014">Config-as-Code &#8212; GitRepoConfig</text><path d="M317.8545,1519.4609 L327.8545,1519.4609 C342.8545,1519.4609 342.8545,1651.0547 357.8545,1651.0547 L367.8545,1651.0547" fill="none" style="stroke:#181818;stroke-width:1;"/><text fill="#000000" font-family="sans-serif" font-size="14" lengthAdjust="spacing" textLength="70.5674" x="370.8545" y="1693.1982">+14 more</text><path d="M317.8545,1519.4609 L327.8545,1519.4609 C342.8545,1519.4609 342.8545,1688.3516 357.8545,1688.3516 L367.8545,1688.3516" fill="none" style="stroke:#181818;stroke-width:1;"/><path d="M141.3232,853.75 L151.3232,853.75 C166.3232,853.75 166.3232,1519.4609 181.3232,1519.4609 L191.3232,1519.4609" fill="none" style="stroke:#181818;stroke-width:1;"/><?plantuml-src ZPHDRjim48NtFWMNhGExYLDq7IL6t00HOjHEjyAOdCfiA98WHswzwo5wmfwa8wgsqo2Iif10F7vlgFcXhY91e4fRLO4VZSKSeowjM08H1Xj7ux5O1aTEEYCo1PvLrfw97mwo-FFhjtZq2WXlG6xn2teNDRcm7pOi-Fa1lM2sl3kTBzPOUSCcaIDjdKh65rfoFTJaQxfreKe9TNBN477jdEa4cit7kpaGDCVVWZmczc-TA1cGVOLqbMUrIBKj8iQedItgbEgxzqCkjEhDdZfYA2g6eSGY87_slXi6ZicVPEdD3dv7PxKj1qdY-XGIZFcFBCJPnRceNC2cQhbMod2V0ugbzcYqnHJk5Js5tkaDJYMRfzMHQE8yR3Zh7S_5YlXmdjqoXSdYtigJba9yvH2Pz5c9bkwTyvqW3y2sStFOla2BGSjha4_Slauiv_e7C4FO6WrVda0hJbDBF5Joux6IMKrEwIWTLw6TmaQPp0zIYlAP3-CkvM2vrQ6BIhaDCAidRSm0qroG4o9kdFscIywELwfjSojD84uQAPduhdz7IRn3-9DQe8jTjLVYtfKbrwcVvRWxhJ3qKpalJ3_Ip4y_iT3K_EbEqBDENN6J3x_MqSLqTZxxD9rjaE3oBm00?></g></svg>